<svg version="1.1" id="Layer_1" xmlns="http://www.w3.org/2000/svg" xmlns:xlink="http://www.w3.org/1999/xlink" x="0px" y="0px"
	 width="100%" viewBox="0 0 1051 105" enable-background="new 0 0 1051 105" xml:space="preserve">
<path fill="#FDFDFE" opacity="1.000000" stroke="none" 
	d="
M1001.000000,106.000000 
	C667.333313,106.000000 334.166656,106.000000 1.000000,106.000000 
	C1.000000,71.000000 1.000000,36.000000 1.000000,1.000000 
	C351.333344,1.000000 701.666687,1.000000 1052.000000,1.000000 
	C1052.000000,36.000000 1052.000000,71.000000 1052.000000,106.000000 
	C1035.166626,106.000000 1018.333313,106.000000 1001.000000,106.000000 
M802.764587,71.740875 
	C804.035156,71.360092 805.358521,71.099022 806.562561,70.567612 
	C808.006470,69.930382 809.747498,69.347198 810.578186,68.182915 
	C811.041809,67.533043 810.048096,64.751213 809.486328,64.679039 
	C808.127075,64.504410 806.428223,65.052292 805.245728,65.862709 
	C803.363708,67.152504 801.790344,68.892822 800.484070,69.640579 
	C800.484070,67.804092 800.484070,65.967606 800.484070,62.781166 
	C796.397888,65.408333 793.495117,67.274635 790.592346,69.140945 
	C790.743896,69.515953 790.895447,69.890961 791.046997,70.265961 
	C792.189148,70.128548 793.331238,69.991127 794.991211,69.791405 
	C793.643372,76.652046 792.390198,83.031082 791.128906,89.450897 
	C796.030823,89.730934 798.116272,88.048798 798.584106,83.319633 
	C798.963623,79.482643 800.906494,75.800285 802.764587,71.740875 
M991.484070,69.640579 
	C991.484070,67.804092 991.484070,65.967606 991.484070,62.781113 
	C987.397888,65.408318 984.495117,67.274643 981.592407,69.140961 
	C981.743896,69.515961 981.895447,69.890961 982.046997,70.265961 
	C983.189148,70.128548 984.331238,69.991142 985.991150,69.791451 
	C984.643677,76.652100 983.390808,83.031212 982.129944,89.450958 
	C987.030823,89.730934 989.116272,88.048805 989.584045,83.319618 
	C989.963562,79.482628 991.906433,75.800270 993.764587,71.740868 
	C995.035156,71.360085 996.358521,71.099045 997.562622,70.567642 
	C999.006470,69.930435 1000.747498,69.347198 1001.578186,68.182922 
	C1002.041809,67.533051 1001.047974,64.751122 1000.486389,64.679039 
	C999.127014,64.504517 997.428223,65.052269 996.245728,65.862640 
	C994.363647,67.152481 992.790344,68.892792 991.484070,69.640579 
M773.315491,82.450569 
	C772.068542,83.314140 770.821533,84.177711 769.029175,85.418999 
	C768.256042,77.541557 773.080994,71.040070 770.838379,62.902447 
	C767.076294,65.492020 764.106934,67.535965 761.137512,69.579903 
	C761.350891,69.928864 761.564331,70.277824 761.777710,70.626778 
	C762.778748,70.300682 763.779785,69.974594 765.458801,69.427635 
	C764.326111,74.618042 763.104980,79.232681 762.406250,83.925117 
	C762.146423,85.669388 762.540466,88.390129 763.681519,89.208893 
	C764.755066,89.979195 767.525879,89.330971 768.972290,88.404724 
	C770.961365,87.130867 772.406555,85.007782 774.882935,83.258415 
	C775.657959,85.488792 776.432922,87.719162 777.651062,91.224884 
	C781.126160,88.408516 783.983337,86.099525 786.812317,83.756516 
	C786.873901,83.705528 786.613098,83.265343 786.444519,82.870384 
	C785.363464,83.289871 784.264221,83.716431 782.438354,84.424934 
	C783.793640,77.620781 785.007202,71.528473 786.227783,65.400497 
	C782.064331,64.212715 780.244202,65.374504 779.197327,69.384903 
	C778.057251,73.752312 775.785706,77.824348 773.315491,82.450569 
M828.628906,83.778389 
	C831.026306,80.007996 833.595459,76.331749 835.739380,72.422356 
	C836.637085,70.785484 837.041260,68.616577 836.871399,66.762764 
	C836.782715,65.795197 834.962097,64.986343 833.923828,64.105774 
	C833.075134,65.184853 831.294678,66.549965 831.524353,67.297997 
	C833.455627,73.588890 829.376343,78.039848 826.265015,82.922356 
	C825.844910,79.463020 825.739807,75.925743 824.908997,72.568016 
	C824.190857,69.665741 822.648071,66.967529 821.469727,64.179138 
	C818.837341,66.218018 816.191833,68.240593 813.603882,70.334381 
	C813.439941,70.466972 813.724731,71.154137 813.828003,71.737137 
	C815.189575,71.013718 816.369507,70.386803 818.267761,69.378212 
	C819.076294,76.256409 821.515869,82.941368 820.043518,88.610298 
	C818.686462,93.835281 813.127625,97.968979 808.496765,103.731697 
	C812.192444,101.889801 815.577393,101.184494 817.375549,99.106224 
	C821.364746,94.495750 824.557922,89.196625 828.628906,83.778389 
M226.463593,85.197227 
	C230.138702,83.611664 232.437286,81.434860 230.003525,77.147774 
	C225.046661,68.416130 227.020294,59.035175 227.798187,49.861439 
	C227.918716,48.440006 230.691483,46.172642 232.185043,46.213692 
	C233.989532,46.263287 237.058243,48.141132 237.295532,49.599415 
	C238.801514,58.854305 241.055313,68.286034 235.658463,77.200912 
	C233.915039,80.080803 234.223923,82.916817 237.509888,84.282616 
	C246.646851,88.080391 255.992783,88.317863 265.136688,84.422585 
	C268.646301,82.927490 268.921570,80.066963 267.196350,76.495735 
	C265.669739,73.335640 264.451416,69.752808 264.241455,66.287270 
	C263.799042,58.984325 264.182770,51.634956 264.084686,44.306549 
	C263.980804,36.544373 259.866394,31.550549 252.383102,29.655582 
	C244.784760,27.731483 238.299316,29.998831 232.441498,34.766083 
	C230.710388,36.174911 229.014359,37.626862 226.807266,39.473110 
	C223.307693,31.143728 217.098892,27.711092 209.321854,29.277319 
	C204.349609,30.278683 199.781982,33.431004 195.131699,35.811863 
	C193.511505,36.641373 192.187408,38.049213 189.935211,39.814339 
	C189.542084,37.264076 189.208633,35.860054 189.127686,34.441616 
	C188.811554,28.902138 188.395142,28.555037 182.774750,29.497267 
	C181.790009,29.662354 180.758118,29.657997 179.816788,29.952087 
	C173.669037,31.872780 167.328033,33.375851 161.474854,35.972580 
	C157.084824,37.920185 157.385437,40.626560 160.361649,44.145397 
	C162.046341,46.137230 163.292328,48.983627 163.575851,51.572186 
	C164.098679,56.345722 164.396896,61.320076 163.599121,66.008331 
	C162.915878,70.023529 161.064575,74.077286 158.824966,77.526398 
	C156.380035,81.291695 156.300034,83.833893 160.592499,85.178391 
	C169.868515,88.083885 179.313065,87.942261 188.574265,84.976654 
	C192.120300,83.841141 193.578476,80.987282 191.938904,77.432510 
	C188.125000,69.163544 189.178207,60.533337 189.778458,51.941090 
	C190.001511,48.748127 191.128036,46.052803 195.108200,45.993801 
	C199.399017,45.930199 200.595230,49.019058 200.774597,52.226620 
	C201.126312,58.516659 201.105362,64.846130 200.826233,71.140999 
	C200.747284,72.921822 199.180054,74.613457 198.402252,76.392700 
	C197.534470,78.377769 195.748734,80.764046 196.274796,82.335571 
	C196.827011,83.985237 199.621506,85.880737 201.477753,85.925079 
	C209.543747,86.117790 217.624939,85.674431 226.463593,85.197227 
M568.759216,29.493380 
	C562.959351,29.542250 557.129456,29.252655 551.370789,29.764894 
	C547.825806,30.080225 544.126221,31.110174 540.971619,32.739815 
	C537.066284,34.757286 537.661316,38.581436 541.263000,40.806446 
	C544.087769,42.551453 546.997498,44.765686 548.778992,47.485706 
	C555.790466,58.191055 562.361206,69.184669 569.114319,80.059669 
	C575.045654,89.611290 579.316650,89.516411 585.101440,79.703735 
	C587.633667,75.408218 590.083862,71.064232 592.622620,66.772636 
	C596.406006,60.377213 597.889954,60.342243 601.723206,66.484406 
	C604.012146,70.152138 606.248352,73.853851 608.592407,77.485962 
	C616.768372,90.154617 621.362427,90.145416 628.672241,77.026291 
	C634.009521,67.447174 638.922791,57.626099 643.825928,47.813358 
	C645.930115,43.602230 648.660461,40.467804 653.202026,38.728344 
	C654.662964,38.168774 656.420898,35.919460 656.358215,34.518494 
	C656.291321,33.023315 654.297302,30.439268 653.031677,30.369200 
	C646.325806,29.997946 639.534668,29.798876 632.875061,30.503464 
	C629.248291,30.887159 628.596191,34.336117 630.065735,37.590546 
	C632.829895,43.712021 630.594910,49.754375 624.396362,52.571529 
	C618.372986,47.110947 617.780518,44.248566 620.930847,37.563183 
	C622.367065,34.515495 621.657227,31.723162 618.248779,30.756653 
	C607.412292,27.683796 596.515320,28.165930 585.882935,31.589344 
	C581.836304,32.892277 581.726807,36.397331 585.084595,39.256199 
	C586.220642,40.223454 587.601074,40.988976 588.496216,42.137810 
	C591.067810,45.438103 588.793762,48.143875 586.890442,50.584232 
	C586.219543,51.444412 584.193909,52.150887 583.282471,51.762962 
	C579.500000,50.153069 577.068359,42.029079 577.919922,37.716553 
	C578.291077,35.836819 577.096863,33.003613 575.648682,31.596561 
	C574.295715,30.282099 571.665344,30.282459 568.759216,29.493380 
M69.757263,74.713951 
	C62.506203,72.655388 60.611828,67.435478 61.049885,60.537289 
	C61.344860,55.892227 61.105480,51.213276 61.106205,46.549484 
	C61.107109,40.719749 60.805199,34.866081 61.261513,29.072166 
	C61.441822,26.782747 63.311230,24.626360 64.411530,22.409397 
	C66.265572,23.803101 68.361092,24.974022 69.908218,26.650894 
	C71.576492,28.459080 72.281670,31.582195 74.216873,32.616776 
	C77.045456,34.128956 80.820595,35.322369 83.763481,34.681767 
	C85.886421,34.219650 88.488617,30.718107 88.834473,28.282192 
	C90.037331,19.810074 86.993095,12.475059 80.253868,7.130203 
	C78.515182,5.751255 75.667915,5.106729 73.378853,5.210024 
	C66.625999,5.514752 59.889553,6.955077 53.161621,6.862739 
	C42.576199,6.717460 32.006313,5.614319 21.420845,5.103279 
	C19.890755,5.029410 18.010424,5.604621 16.803267,6.539452 
	C9.928630,11.863218 6.413213,19.102583 6.510030,27.701761 
	C6.586592,34.501862 13.026960,37.604691 18.544540,33.572495 
	C21.147293,31.670427 22.825125,28.549736 25.178307,26.242590 
	C26.744066,24.707457 28.762970,23.634506 30.579050,22.354685 
	C31.507076,24.315531 33.269794,26.294193 33.228386,28.234350 
	C32.948483,41.348869 32.337173,54.457630 31.714575,67.562622 
	C31.551983,70.984993 29.172207,72.548508 26.189842,73.899048 
	C24.401201,74.709023 21.927681,76.959396 22.057468,78.347809 
	C22.243345,80.336235 24.152304,83.088547 25.992271,83.806854 
	C29.949966,85.351936 34.338329,86.576508 38.541454,86.549286 
	C47.627560,86.490471 56.798546,86.150238 65.757973,84.773933 
	C71.428673,83.902832 72.449699,80.458511 69.757263,74.713951 
M520.320618,82.946762 
	C531.085815,76.763496 538.056335,68.206573 536.414429,55.058994 
	C534.866638,42.664917 527.745667,34.159409 515.880127,30.612768 
	C502.367523,26.573812 489.752594,29.444454 479.148102,38.791328 
	C470.016113,46.840317 467.821198,57.445065 471.026459,68.817497 
	C474.085938,79.672440 482.297119,85.109116 493.057373,87.261139 
	C502.443573,89.138359 511.198059,87.378235 520.320618,82.946762 
M294.670685,30.965382 
	C291.392365,32.545853 287.872223,33.765610 284.879517,35.772072 
	C274.436279,42.773746 270.384583,52.981888 272.119934,65.118881 
	C273.738922,76.441978 280.948822,83.475311 291.812195,86.511925 
	C304.659332,90.103058 316.640045,87.573578 327.214233,79.720406 
	C341.774963,68.906494 342.724976,49.824528 329.478119,37.348782 
	C319.616425,28.061131 307.875061,27.425604 294.670685,30.965382 
M142.685013,79.226074 
	C159.188568,66.654305 155.138046,44.392292 140.888718,34.506546 
	C125.572906,23.880903 100.262222,29.138531 90.639809,45.078358 
	C82.615700,58.370541 84.819786,82.185555 109.119781,87.140251 
	C121.243263,89.612183 132.156311,86.701012 142.685013,79.226074 
M374.090393,30.419022 
	C372.415253,29.947975 370.634094,28.852432 369.083618,29.115660 
	C362.885803,30.167883 356.702942,31.431898 350.636200,33.068630 
	C348.347839,33.686012 346.019531,35.173965 344.373138,36.898640 
	C342.244202,39.128838 341.536133,42.359390 345.027252,43.891888 
	C349.010223,45.640285 349.939850,48.609688 349.840759,52.277451 
	C349.701935,57.415142 349.641602,62.595249 348.884949,67.658165 
	C348.531494,70.023117 347.068146,72.609299 345.335510,74.307022 
	C340.517212,79.028244 341.052277,83.505203 347.600739,85.267006 
	C358.186005,88.114853 369.018341,88.021240 379.595459,85.194702 
	C381.738098,84.622116 384.220947,81.690094 384.616272,79.497665 
	C384.876556,78.054161 381.742676,75.920799 380.007080,74.220444 
	C378.677673,72.918030 376.045258,71.920944 375.912903,70.596176 
	C375.289673,64.357941 375.060028,58.045506 375.247406,51.776199 
	C375.338348,48.733612 377.497772,48.447304 379.760864,50.351879 
	C380.523499,50.993690 381.220520,51.714329 381.991516,52.345169 
	C387.662415,56.985104 395.836304,55.997364 400.587311,50.111366 
	C404.741455,44.964901 404.094421,36.203350 399.245575,31.942354 
	C394.034027,27.362616 385.880402,28.162930 380.938721,33.711597 
	C379.675659,35.129810 378.331512,36.475796 376.183319,38.742832 
	C375.432861,35.479996 374.940399,33.338818 374.090393,30.419022 
M408.000275,36.853176 
	C405.905121,40.248707 405.877808,42.786064 410.123718,44.804768 
	C411.669922,45.539898 413.127258,48.134663 413.216492,49.950203 
	C413.492706,55.571156 413.478668,61.273632 412.784698,66.845764 
	C412.452759,69.511368 410.837585,72.450859 408.921082,74.397461 
	C404.593048,78.793472 404.825012,83.306351 410.622375,85.000954 
	C421.689697,88.235992 433.023926,88.110260 444.097382,84.952858 
	C445.993500,84.412201 447.942200,81.318298 448.301086,79.145325 
	C448.518280,77.830116 445.800049,75.937553 444.259644,74.450424 
	C442.694733,72.939583 439.806396,71.814659 439.509277,70.159576 
	C438.604736,65.121307 438.470917,59.908936 438.466675,54.763988 
	C438.465149,52.950005 439.704773,51.134995 440.377686,49.320446 
	C442.031158,50.225964 443.859039,50.913876 445.307800,52.074871 
	C451.418091,56.971592 459.331940,56.190941 464.313995,50.051823 
	C468.598328,44.772411 467.972412,36.274113 462.979675,31.936176 
	C457.554626,27.222542 449.436737,28.199112 444.348572,34.095894 
	C443.174438,35.456619 441.742920,36.595268 439.731354,38.496166 
	C439.156738,35.730038 439.190674,33.931812 438.403778,32.629601 
	C437.530457,31.184418 435.834076,29.095518 434.623291,29.177052 
	C425.490814,29.792028 416.355865,30.751247 408.000275,36.853176 
M675.934998,70.256554 
	C675.433472,69.207893 675.032837,68.095085 674.413757,67.121185 
	C670.945068,61.665283 664.377136,59.430023 658.276428,61.569496 
	C652.420898,63.622990 648.862549,69.245216 649.375427,75.633377 
	C649.870667,81.802673 654.490234,86.793922 660.670044,87.877029 
	C667.971191,89.156670 678.331543,83.338737 675.934998,70.256554 
M855.624512,67.819321 
	C855.114380,69.359268 855.406128,69.587669 858.242554,69.690056 
	C857.412231,74.118500 857.072449,78.677887 855.651001,82.870560 
	C853.500732,89.212494 855.846497,97.386734 848.346558,101.932091 
	C853.179871,101.637558 858.013245,101.343018 863.411438,101.014053 
	C858.726013,97.776161 858.726013,97.776161 860.680237,89.934784 
	C867.229004,89.743149 873.071655,86.217644 876.320862,80.363304 
	C878.680115,76.112381 880.348633,71.094574 877.062195,67.290428 
	C874.907715,64.796577 870.357605,64.372398 866.064941,62.704464 
	C866.087280,63.003193 865.999939,61.835056 865.821472,59.447948 
	C862.070007,62.605099 859.160706,65.053474 855.624512,67.819321 
M928.698975,101.672134 
	C932.081726,101.453522 935.464539,101.234909 938.847290,101.016289 
	C931.974915,98.180756 936.632141,93.591820 936.496155,89.940811 
	C943.777466,89.726097 948.876038,86.262772 952.322937,80.323654 
	C954.756897,76.130005 956.348694,71.070763 953.054504,67.276863 
	C950.894714,64.789459 946.352417,64.370750 942.067322,62.712055 
	C942.088501,63.003399 942.003601,61.836006 941.828064,59.423717 
	C937.497620,63.082230 934.017456,66.022369 930.056885,69.368393 
	C931.675720,69.368393 932.804504,69.368393 934.432495,69.368393 
	C932.935303,76.503822 931.350769,83.439911 930.060730,90.430344 
	C929.263428,94.750793 929.196533,99.303070 924.231873,101.846558 
	C925.426453,101.790672 926.620972,101.734795 928.698975,101.672134 
M902.867249,80.439842 
	C902.354004,87.924118 908.314575,91.718964 915.632080,89.091232 
	C922.511658,86.620766 926.905273,79.632828 926.231567,71.710709 
	C925.793457,66.558510 922.257019,63.663597 917.096924,64.233070 
	C908.838989,65.144409 904.188904,70.164238 902.867249,80.439842 
M1029.332520,91.460838 
	C1025.552246,94.998581 1021.771912,98.536316 1017.991638,102.074051 
	C1018.240845,102.508423 1018.490051,102.942795 1018.739319,103.377167 
	C1021.561890,101.800293 1025.246216,100.883194 1027.050293,98.526604 
	C1033.205933,90.485497 1038.752930,81.973434 1044.395142,73.549255 
	C1045.369995,72.093567 1046.292358,70.123611 1046.116943,68.513458 
	C1045.946411,66.948135 1044.334351,65.539886 1043.355225,64.062660 
	C1042.545898,65.605278 1040.887451,67.261261 1041.075562,68.670738 
	C1041.853760,74.500092 1038.897705,78.561615 1035.650269,83.311172 
	C1034.688232,77.337669 1034.069214,72.089890 1032.838501,66.989746 
	C1032.579834,65.918213 1029.533691,64.369263 1028.703979,64.806931 
	C1026.448242,65.996986 1024.691895,68.133743 1022.737610,69.895294 
	C1022.992859,70.213585 1023.248108,70.531876 1023.503357,70.850166 
	C1024.616211,70.507607 1025.729126,70.165047 1027.725830,69.550476 
	C1028.421753,76.989189 1029.067505,83.889938 1029.332520,91.460838 
M742.763428,77.378433 
	C740.640259,80.743683 739.916626,85.936241 733.787109,84.092598 
	C733.367554,83.966423 732.061523,85.260406 731.951965,86.008698 
	C731.807434,86.996651 732.170227,88.754616 732.793335,89.008835 
	C733.954407,89.482498 735.986389,89.674965 736.727722,88.985909 
	C739.225830,86.664001 741.316223,83.903412 743.054504,81.897003 
	C745.038513,84.493614 746.796814,87.627251 749.408875,89.667892 
	C750.122986,90.225822 753.400513,87.502495 756.386597,85.772202 
	C749.734009,83.872154 746.976562,75.083290 750.661194,71.206657 
	C751.695862,70.118088 753.593811,69.839432 755.109131,69.221870 
	C756.272156,68.747849 757.718323,68.583282 758.519653,67.769920 
	C758.917419,67.366074 758.390686,65.105537 757.857300,64.922409 
	C756.660156,64.511383 754.807129,64.354439 753.918884,65.022247 
	C751.596130,66.768517 749.647888,69.012939 747.983948,70.635895 
	C746.176636,68.407295 743.687683,64.117928 742.770081,64.431183 
	C739.791626,65.448013 737.388733,68.151009 734.764160,70.204758 
	C735.103516,70.645882 735.442871,71.087006 735.782227,71.528130 
	C737.085938,70.831413 738.389648,70.134697 740.091431,69.225281 
	C741.005920,71.898727 741.799438,74.218513 742.763428,77.378433 
M699.014893,66.624031 
	C700.006897,61.196369 700.998901,55.768711 702.067627,49.920948 
	C697.898621,51.017773 694.550415,51.898640 691.202209,52.779510 
	C695.493347,53.481495 694.997131,55.907799 694.399719,58.742950 
	C692.753357,66.556229 691.146545,74.385048 689.859619,82.262520 
	C689.468933,84.654037 690.170776,87.224037 690.372192,89.712288 
	C692.754150,88.731010 695.142944,87.765694 697.506531,86.741959 
	C697.725098,86.647308 697.782837,86.181335 697.454407,86.909378 
	C696.843689,84.242294 696.015442,82.631737 696.225403,81.170250 
	C696.886169,76.568542 697.936768,72.022820 699.014893,66.624031 
M963.843018,89.861771 
	C968.251343,89.627014 972.200989,88.502457 974.687134,84.462784 
	C972.974731,84.532959 971.325073,85.783997 970.023010,85.490906 
	C968.116943,85.061852 965.866394,83.921638 964.833374,82.371155 
	C963.209473,79.933601 964.973083,78.777634 967.485229,77.955002 
	C970.432190,76.989937 973.589844,75.811607 975.819031,73.798752 
	C977.425110,72.348434 978.999207,68.419991 978.202271,67.311424 
	C976.938721,65.553535 973.511536,64.142639 971.297363,64.488823 
	C962.471375,65.868797 956.324951,74.806534 958.130005,83.643951 
	C958.590088,85.896591 961.359924,87.677475 963.843018,89.861771 
M1012.355042,80.027435 
	C1013.261047,75.846107 1014.167053,71.664787 1014.964172,67.985985 
	C1017.419861,67.307922 1019.262573,66.799126 1021.105286,66.290329 
	C1021.032043,65.947838 1020.958801,65.605339 1020.885620,65.262848 
	C1019.206665,65.053932 1017.527710,64.845024 1015.817322,64.632195 
	C1016.277039,61.892036 1016.687805,59.443939 1017.098511,56.995842 
	C1016.659058,56.763199 1016.219604,56.530556 1015.780151,56.297913 
	C1012.302063,59.823689 1008.824036,63.349461 1005.090393,67.134315 
	C1006.219666,67.510277 1007.357605,67.889091 1008.627075,68.311722 
	C1007.680969,73.062737 1006.512390,77.575302 1005.978638,82.161758 
	C1005.695557,84.593918 1006.514954,87.154358 1006.836670,89.656868 
	C1009.234009,88.783043 1011.643188,87.939339 1014.016663,87.004852 
	C1014.399292,86.854195 1014.622864,86.299271 1014.072998,86.980461 
	C1013.257446,84.288582 1012.735962,82.567276 1012.355042,80.027435 
M891.447388,70.110291 
	C891.617188,68.172791 891.786926,66.235283 891.956665,64.297783 
	C891.469543,64.049423 890.982483,63.801067 890.495361,63.552711 
	C887.540161,65.503792 884.584961,67.454872 881.629761,69.405952 
	C881.822754,69.763725 882.015747,70.121498 882.208740,70.479263 
	C883.364624,70.201027 884.520508,69.922783 886.274963,69.500465 
	C884.942871,76.379829 883.700134,82.797379 882.370605,89.663307 
	C884.806580,89.230499 886.692810,88.895378 888.217712,88.624443 
	C889.712830,83.507790 890.847595,78.689537 892.578857,74.096069 
	C893.436890,71.819427 894.710144,69.014259 898.509338,70.681854 
	C899.172363,70.972900 901.193115,69.248970 901.861450,68.051018 
	C902.270569,67.317581 901.579590,65.097054 900.879211,64.820793 
	C899.801941,64.395836 897.958740,64.640900 897.034119,65.362389 
	C895.043335,66.915916 893.430664,68.953995 891.447388,70.110291 
M710.504028,64.871742 
	C708.667236,66.139153 706.830505,67.406563 704.113403,69.281425 
	C706.140747,69.545021 706.978577,69.653954 708.202026,69.813026 
	C707.242737,74.016533 705.972839,78.147713 705.465088,82.370529 
	C705.182983,84.717377 706.172119,87.217064 706.588318,89.647888 
	C708.826416,88.892624 711.107178,88.239357 713.281555,87.331482 
	C714.141357,86.972473 714.821716,86.096481 715.465210,85.353226 
	C715.698975,85.083138 715.587463,84.514183 715.651917,83.908623 
	C714.265625,84.166367 713.079285,84.386917 711.539246,84.673241 
	C711.606018,83.366287 711.543579,82.405945 711.720581,81.492004 
	C712.600708,76.948769 713.626526,72.432350 714.430969,67.876465 
	C714.847412,65.518097 714.829468,63.179192 710.504028,64.871742 
M721.007446,74.305458 
	C720.792419,75.099777 720.816956,76.113213 720.323486,76.652901 
	C717.065674,80.215614 719.839783,84.403069 719.132507,88.223267 
	C719.081055,88.501472 721.307373,89.799454 721.982910,89.502907 
	C724.070557,88.586464 725.985962,87.215935 727.831787,85.838799 
	C728.648682,85.229355 729.137329,84.179955 730.157837,82.820038 
	C728.207397,83.344101 726.969604,83.676666 725.192688,84.154076 
	C726.608765,77.148552 727.891357,70.803436 729.136597,64.642792 
	C721.535522,63.826328 722.403137,69.500389 721.007446,74.305458 
z"/>
<path fill="#1203E8" opacity="1.000000" stroke="none" 
	d="
M226.082092,85.329727 
	C217.624939,85.674431 209.543747,86.117790 201.477753,85.925079 
	C199.621506,85.880737 196.827011,83.985237 196.274796,82.335571 
	C195.748734,80.764046 197.534470,78.377769 198.402252,76.392700 
	C199.180054,74.613457 200.747284,72.921822 200.826233,71.140999 
	C201.105362,64.846130 201.126312,58.516659 200.774597,52.226620 
	C200.595230,49.019058 199.399017,45.930199 195.108200,45.993801 
	C191.128036,46.052803 190.001511,48.748127 189.778458,51.941090 
	C189.178207,60.533337 188.125000,69.163544 191.938904,77.432510 
	C193.578476,80.987282 192.120300,83.841141 188.574265,84.976654 
	C179.313065,87.942261 169.868515,88.083885 160.592499,85.178391 
	C156.300034,83.833893 156.380035,81.291695 158.824966,77.526398 
	C161.064575,74.077286 162.915878,70.023529 163.599121,66.008331 
	C164.396896,61.320076 164.098679,56.345722 163.575851,51.572186 
	C163.292328,48.983627 162.046341,46.137230 160.361649,44.145397 
	C157.385437,40.626560 157.084824,37.920185 161.474854,35.972580 
	C167.328033,33.375851 173.669037,31.872780 179.816788,29.952087 
	C180.758118,29.657997 181.790009,29.662354 182.774750,29.497267 
	C188.395142,28.555037 188.811554,28.902138 189.127686,34.441616 
	C189.208633,35.860054 189.542084,37.264076 189.935211,39.814339 
	C192.187408,38.049213 193.511505,36.641373 195.131699,35.811863 
	C199.781982,33.431004 204.349609,30.278683 209.321854,29.277319 
	C217.098892,27.711092 223.307693,31.143728 226.807266,39.473110 
	C229.014359,37.626862 230.710388,36.174911 232.441498,34.766083 
	C238.299316,29.998831 244.784760,27.731483 252.383102,29.655582 
	C259.866394,31.550549 263.980804,36.544373 264.084686,44.306549 
	C264.182770,51.634956 263.799042,58.984325 264.241455,66.287270 
	C264.451416,69.752808 265.669739,73.335640 267.196350,76.495735 
	C268.921570,80.066963 268.646301,82.927490 265.136688,84.422585 
	C255.992783,88.317863 246.646851,88.080391 237.509888,84.282616 
	C234.223923,82.916817 233.915039,80.080803 235.658463,77.200912 
	C241.055313,68.286034 238.801514,58.854305 237.295532,49.599415 
	C237.058243,48.141132 233.989532,46.263287 232.185043,46.213692 
	C230.691483,46.172642 227.918716,48.440006 227.798187,49.861439 
	C227.020294,59.035175 225.046661,68.416130 230.003525,77.147774 
	C232.437286,81.434860 230.138702,83.611664 226.082092,85.329727 
z"/>
<path fill="#1203E8" opacity="1.000000" stroke="none" 
	d="
M569.178223,29.598740 
	C571.665344,30.282459 574.295715,30.282099 575.648682,31.596561 
	C577.096863,33.003613 578.291077,35.836819 577.919922,37.716553 
	C577.068359,42.029079 579.500000,50.153069 583.282471,51.762962 
	C584.193909,52.150887 586.219543,51.444412 586.890442,50.584232 
	C588.793762,48.143875 591.067810,45.438103 588.496216,42.137810 
	C587.601074,40.988976 586.220642,40.223454 585.084595,39.256199 
	C581.726807,36.397331 581.836304,32.892277 585.882935,31.589344 
	C596.515320,28.165930 607.412292,27.683796 618.248779,30.756653 
	C621.657227,31.723162 622.367065,34.515495 620.930847,37.563183 
	C617.780518,44.248566 618.372986,47.110947 624.396362,52.571529 
	C630.594910,49.754375 632.829895,43.712021 630.065735,37.590546 
	C628.596191,34.336117 629.248291,30.887159 632.875061,30.503464 
	C639.534668,29.798876 646.325806,29.997946 653.031677,30.369200 
	C654.297302,30.439268 656.291321,33.023315 656.358215,34.518494 
	C656.420898,35.919460 654.662964,38.168774 653.202026,38.728344 
	C648.660461,40.467804 645.930115,43.602230 643.825928,47.813358 
	C638.922791,57.626099 634.009521,67.447174 628.672241,77.026291 
	C621.362427,90.145416 616.768372,90.154617 608.592407,77.485962 
	C606.248352,73.853851 604.012146,70.152138 601.723206,66.484406 
	C597.889954,60.342243 596.406006,60.377213 592.622620,66.772636 
	C590.083862,71.064232 587.633667,75.408218 585.101440,79.703735 
	C579.316650,89.516411 575.045654,89.611290 569.114319,80.059669 
	C562.361206,69.184669 555.790466,58.191055 548.778992,47.485706 
	C546.997498,44.765686 544.087769,42.551453 541.263000,40.806446 
	C537.661316,38.581436 537.066284,34.757286 540.971619,32.739815 
	C544.126221,31.110174 547.825806,30.080225 551.370789,29.764894 
	C557.129456,29.252655 562.959351,29.542250 569.178223,29.598740 
z"/>
<path fill="#1102E8" opacity="1.000000" stroke="none" 
	d="
M70.043884,74.949814 
	C72.449699,80.458511 71.428673,83.902832 65.757973,84.773933 
	C56.798546,86.150238 47.627560,86.490471 38.541454,86.549286 
	C34.338329,86.576508 29.949966,85.351936 25.992271,83.806854 
	C24.152304,83.088547 22.243345,80.336235 22.057468,78.347809 
	C21.927681,76.959396 24.401201,74.709023 26.189842,73.899048 
	C29.172207,72.548508 31.551983,70.984993 31.714575,67.562622 
	C32.337173,54.457630 32.948483,41.348869 33.228386,28.234350 
	C33.269794,26.294193 31.507076,24.315531 30.579050,22.354685 
	C28.762970,23.634506 26.744066,24.707457 25.178307,26.242590 
	C22.825125,28.549736 21.147293,31.670427 18.544540,33.572495 
	C13.026960,37.604691 6.586592,34.501862 6.510030,27.701761 
	C6.413213,19.102583 9.928630,11.863218 16.803267,6.539452 
	C18.010424,5.604621 19.890755,5.029410 21.420845,5.103279 
	C32.006313,5.614319 42.576199,6.717460 53.161621,6.862739 
	C59.889553,6.955077 66.625999,5.514752 73.378853,5.210024 
	C75.667915,5.106729 78.515182,5.751255 80.253868,7.130203 
	C86.993095,12.475059 90.037331,19.810074 88.834473,28.282192 
	C88.488617,30.718107 85.886421,34.219650 83.763481,34.681767 
	C80.820595,35.322369 77.045456,34.128956 74.216873,32.616776 
	C72.281670,31.582195 71.576492,28.459080 69.908218,26.650894 
	C68.361092,24.974022 66.265572,23.803101 64.411530,22.409397 
	C63.311230,24.626360 61.441822,26.782747 61.261513,29.072166 
	C60.805199,34.866081 61.107109,40.719749 61.106205,46.549484 
	C61.105480,51.213276 61.344860,55.892227 61.049885,60.537289 
	C60.611828,67.435478 62.506203,72.655388 70.043884,74.949814 
z"/>
<path fill="#1203E8" opacity="1.000000" stroke="none" 
	d="
M519.977295,83.095398 
	C511.198059,87.378235 502.443573,89.138359 493.057373,87.261139 
	C482.297119,85.109116 474.085938,79.672440 471.026459,68.817497 
	C467.821198,57.445065 470.016113,46.840317 479.148102,38.791328 
	C489.752594,29.444454 502.367523,26.573812 515.880127,30.612768 
	C527.745667,34.159409 534.866638,42.664917 536.414429,55.058994 
	C538.056335,68.206573 531.085815,76.763496 519.977295,83.095398 
M505.520752,45.038086 
	C503.530670,44.201542 501.371429,42.466850 499.601624,42.800106 
	C498.063660,43.089706 495.910767,45.680199 495.852051,47.319183 
	C495.559113,55.492271 496.458038,63.641472 501.182495,70.612526 
	C502.309845,72.275970 505.592560,73.851578 507.281769,73.367264 
	C508.904297,72.902069 510.988525,69.520470 510.714478,67.754929 
	C509.560425,60.319168 507.600037,53.008553 505.520752,45.038086 
z"/>
<path fill="#1203E8" opacity="1.000000" stroke="none" 
	d="
M295.068542,30.890160 
	C307.875061,27.425604 319.616425,28.061131 329.478119,37.348782 
	C342.724976,49.824528 341.774963,68.906494 327.214233,79.720406 
	C316.640045,87.573578 304.659332,90.103058 291.812195,86.511925 
	C280.948822,83.475311 273.738922,76.441978 272.119934,65.118881 
	C270.384583,52.981888 274.436279,42.773746 284.879517,35.772072 
	C287.872223,33.765610 291.392365,32.545853 295.068542,30.890160 
M310.726837,51.963776 
	C309.594147,49.580376 308.853546,46.860912 307.196198,44.927170 
	C306.015564,43.549622 303.370667,42.302509 301.801727,42.693314 
	C300.178925,43.097527 297.994263,45.494583 297.910553,47.115685 
	C297.479706,55.462082 298.457642,63.745239 303.343292,70.819481 
	C304.452240,72.425255 307.673248,73.675766 309.550537,73.288544 
	C310.979156,72.993858 312.785553,69.821037 312.736298,67.973740 
	C312.600616,62.885944 311.578186,57.821793 310.726837,51.963776 
z"/>
<path fill="#1203E8" opacity="1.000000" stroke="none" 
	d="
M142.415375,79.461761 
	C132.156311,86.701012 121.243263,89.612183 109.119781,87.140251 
	C84.819786,82.185555 82.615700,58.370541 90.639809,45.078358 
	C100.262222,29.138531 125.572906,23.880903 140.888718,34.506546 
	C155.138046,44.392292 159.188568,66.654305 142.415375,79.461761 
M117.318619,70.115356 
	C119.666115,71.288986 121.939285,73.006744 124.401169,73.343056 
	C125.270569,73.461815 127.751694,70.034531 127.526237,68.519501 
	C126.415520,61.055630 125.006203,53.581451 122.845444,46.367554 
	C122.313675,44.592167 118.139458,42.372459 116.421890,42.900604 
	C114.540619,43.479080 112.171844,47.194118 112.448441,49.208130 
	C113.385445,56.030602 115.398712,62.705257 117.318619,70.115356 
z"/>
<path fill="#1103E8" opacity="1.000000" stroke="none" 
	d="
M374.269165,30.808332 
	C374.940399,33.338818 375.432861,35.479996 376.183319,38.742832 
	C378.331512,36.475796 379.675659,35.129810 380.938721,33.711597 
	C385.880402,28.162930 394.034027,27.362616 399.245575,31.942354 
	C404.094421,36.203350 404.741455,44.964901 400.587311,50.111366 
	C395.836304,55.997364 387.662415,56.985104 381.991516,52.345169 
	C381.220520,51.714329 380.523499,50.993690 379.760864,50.351879 
	C377.497772,48.447304 375.338348,48.733612 375.247406,51.776199 
	C375.060028,58.045506 375.289673,64.357941 375.912903,70.596176 
	C376.045258,71.920944 378.677673,72.918030 380.007080,74.220444 
	C381.742676,75.920799 384.876556,78.054161 384.616272,79.497665 
	C384.220947,81.690094 381.738098,84.622116 379.595459,85.194702 
	C369.018341,88.021240 358.186005,88.114853 347.600739,85.267006 
	C341.052277,83.505203 340.517212,79.028244 345.335510,74.307022 
	C347.068146,72.609299 348.531494,70.023117 348.884949,67.658165 
	C349.641602,62.595249 349.701935,57.415142 349.840759,52.277451 
	C349.939850,48.609688 349.010223,45.640285 345.027252,43.891888 
	C341.536133,42.359390 342.244202,39.128838 344.373138,36.898640 
	C346.019531,35.173965 348.347839,33.686012 350.636200,33.068630 
	C356.702942,31.431898 362.885803,30.167883 369.083618,29.115660 
	C370.634094,28.852432 372.415253,29.947975 374.269165,30.808332 
z"/>
<path fill="#1203E8" opacity="1.000000" stroke="none" 
	d="
M408.263489,36.566738 
	C416.355865,30.751247 425.490814,29.792028 434.623291,29.177052 
	C435.834076,29.095518 437.530457,31.184418 438.403778,32.629601 
	C439.190674,33.931812 439.156738,35.730038 439.731354,38.496166 
	C441.742920,36.595268 443.174438,35.456619 444.348572,34.095894 
	C449.436737,28.199112 457.554626,27.222542 462.979675,31.936176 
	C467.972412,36.274113 468.598328,44.772411 464.313995,50.051823 
	C459.331940,56.190941 451.418091,56.971592 445.307800,52.074871 
	C443.859039,50.913876 442.031158,50.225964 440.377686,49.320450 
	C439.704773,51.134995 438.465149,52.950005 438.466675,54.763988 
	C438.470917,59.908936 438.604736,65.121307 439.509277,70.159576 
	C439.806396,71.814659 442.694733,72.939583 444.259644,74.450424 
	C445.800049,75.937553 448.518280,77.830116 448.301086,79.145325 
	C447.942200,81.318298 445.993500,84.412201 444.097382,84.952858 
	C433.023926,88.110260 421.689697,88.235992 410.622375,85.000954 
	C404.825012,83.306351 404.593048,78.793472 408.921082,74.397461 
	C410.837585,72.450859 412.452759,69.511368 412.784698,66.845764 
	C413.478668,61.273632 413.492706,55.571156 413.216492,49.950203 
	C413.127258,48.134663 411.669922,45.539898 410.123718,44.804768 
	C405.877808,42.786064 405.905121,40.248707 408.263489,36.566738 
z"/>
<path fill="#1304E8" opacity="1.000000" stroke="none" 
	d="
M676.009033,70.670517 
	C678.331543,83.338737 667.971191,89.156670 660.670044,87.877029 
	C654.490234,86.793922 649.870667,81.802673 649.375427,75.633377 
	C648.862549,69.245216 652.420898,63.622990 658.276428,61.569496 
	C664.377136,59.430023 670.945068,61.665283 674.413757,67.121185 
	C675.032837,68.095085 675.433472,69.207893 676.009033,70.670517 
z"/>
<path fill="#282828" opacity="1.000000" stroke="none" 
	d="
M855.937988,67.660583 
	C859.160706,65.053474 862.070007,62.605099 865.821472,59.447948 
	C865.999939,61.835056 866.087280,63.003193 866.064941,62.704464 
	C870.357605,64.372398 874.907715,64.796577 877.062195,67.290428 
	C880.348633,71.094574 878.680115,76.112381 876.320862,80.363304 
	C873.071655,86.217644 867.229004,89.743149 860.680237,89.934784 
	C858.726013,97.776161 858.726013,97.776161 863.411438,101.014053 
	C858.013245,101.343018 853.179871,101.637558 848.346558,101.932091 
	C855.846497,97.386734 853.500732,89.212494 855.651001,82.870560 
	C857.072449,78.677887 857.412231,74.118500 858.242554,69.690056 
	C855.406128,69.587669 855.114380,69.359268 855.937988,67.660583 
M863.453186,74.981079 
	C862.971252,77.755486 862.309387,80.515755 862.089844,83.310745 
	C861.992493,84.550980 862.788635,85.861382 863.179138,87.139931 
	C864.599792,86.619598 866.853882,86.479874 867.295654,85.512543 
	C869.124084,81.508446 871.039978,77.354630 871.718811,73.065094 
	C872.500183,68.128204 870.534607,66.829216 864.980347,67.486977 
	C864.561584,69.643471 864.123596,71.898834 863.453186,74.981079 
z"/>
<path fill="#282828" opacity="1.000000" stroke="none" 
	d="
M928.257263,101.675522 
	C926.620972,101.734795 925.426453,101.790672 924.231873,101.846558 
	C929.196533,99.303070 929.263428,94.750793 930.060730,90.430344 
	C931.350769,83.439911 932.935303,76.503822 934.432495,69.368393 
	C932.804504,69.368393 931.675720,69.368393 930.056885,69.368393 
	C934.017456,66.022369 937.497620,63.082230 941.828064,59.423717 
	C942.003601,61.836006 942.088501,63.003399 942.067322,62.712055 
	C946.352417,64.370750 950.894714,64.789459 953.054504,67.276863 
	C956.348694,71.070763 954.756897,76.130005 952.322937,80.323654 
	C948.876038,86.262772 943.777466,89.726097 936.496155,89.940811 
	C936.632141,93.591820 931.974915,98.180756 938.847290,101.016289 
	C935.464539,101.234909 932.081726,101.453522 928.257263,101.675522 
M947.817017,70.979645 
	C946.997742,67.175919 944.665405,66.267601 940.891541,67.525635 
	C939.946716,72.670349 938.853943,77.857620 938.130676,83.095917 
	C937.950195,84.402992 938.961121,85.874573 939.424377,87.270538 
	C940.827332,86.638084 943.073364,86.344109 943.486755,85.314392 
	C945.247437,80.929176 946.465698,76.326218 947.817017,70.979645 
z"/>
<path fill="#282828" opacity="1.000000" stroke="none" 
	d="
M902.870178,80.013840 
	C904.188904,70.164238 908.838989,65.144409 917.096924,64.233070 
	C922.257019,63.663597 925.793457,66.558510 926.231567,71.710709 
	C926.905273,79.632828 922.511658,86.620766 915.632080,89.091232 
	C908.314575,91.718964 902.354004,87.924118 902.870178,80.013840 
M911.980591,69.745590 
	C911.321716,74.418243 910.406067,79.078400 910.177795,83.771957 
	C910.117859,85.004456 911.987122,86.953972 913.354370,87.401611 
	C914.189758,87.675140 916.571411,85.906067 916.851746,84.721451 
	C917.940796,80.119385 918.715759,75.401695 919.049866,70.687531 
	C919.149597,69.280586 917.428528,67.744591 916.541687,66.267670 
	C915.123413,67.188835 913.705139,68.110001 911.980591,69.745590 
z"/>
<path fill="#292929" opacity="1.000000" stroke="none" 
	d="
M1029.522827,91.125763 
	C1029.067505,83.889938 1028.421753,76.989189 1027.725830,69.550476 
	C1025.729126,70.165047 1024.616211,70.507607 1023.503357,70.850166 
	C1023.248108,70.531876 1022.992859,70.213585 1022.737610,69.895294 
	C1024.691895,68.133743 1026.448242,65.996986 1028.703979,64.806931 
	C1029.533691,64.369263 1032.579834,65.918213 1032.838501,66.989746 
	C1034.069214,72.089890 1034.688232,77.337669 1035.650269,83.311172 
	C1038.897705,78.561615 1041.853760,74.500092 1041.075562,68.670738 
	C1040.887451,67.261261 1042.545898,65.605278 1043.355225,64.062668 
	C1044.334351,65.539886 1045.946411,66.948135 1046.116943,68.513458 
	C1046.292358,70.123611 1045.369995,72.093567 1044.395142,73.549255 
	C1038.752930,81.973434 1033.205933,90.485497 1027.050293,98.526604 
	C1025.246216,100.883194 1021.561890,101.800293 1018.739319,103.377167 
	C1018.490051,102.942795 1018.240845,102.508423 1017.991638,102.074051 
	C1021.771912,98.536316 1025.552246,94.998581 1029.522827,91.125763 
z"/>
<path fill="#282828" opacity="1.000000" stroke="none" 
	d="
M742.678223,76.958366 
	C741.799438,74.218513 741.005920,71.898727 740.091431,69.225281 
	C738.389648,70.134697 737.085938,70.831413 735.782227,71.528130 
	C735.442871,71.087006 735.103516,70.645882 734.764160,70.204758 
	C737.388733,68.151009 739.791626,65.448013 742.770081,64.431183 
	C743.687683,64.117928 746.176636,68.407295 747.983948,70.635895 
	C749.647888,69.012939 751.596130,66.768517 753.918884,65.022247 
	C754.807129,64.354439 756.660156,64.511383 757.857300,64.922409 
	C758.390686,65.105537 758.917419,67.366074 758.519653,67.769920 
	C757.718323,68.583282 756.272156,68.747849 755.109131,69.221870 
	C753.593811,69.839432 751.695862,70.118088 750.661194,71.206657 
	C746.976562,75.083290 749.734009,83.872154 756.386597,85.772202 
	C753.400513,87.502495 750.122986,90.225822 749.408875,89.667892 
	C746.796814,87.627251 745.038513,84.493614 743.054504,81.897003 
	C741.316223,83.903412 739.225830,86.664001 736.727722,88.985909 
	C735.986389,89.674965 733.954407,89.482498 732.793335,89.008835 
	C732.170227,88.754616 731.807434,86.996651 731.951965,86.008698 
	C732.061523,85.260406 733.367554,83.966423 733.787109,84.092598 
	C739.916626,85.936241 740.640259,80.743683 742.678223,76.958366 
z"/>
<path fill="#272727" opacity="1.000000" stroke="none" 
	d="
M698.925659,67.039734 
	C697.936768,72.022820 696.886169,76.568542 696.225403,81.170250 
	C696.015442,82.631737 696.843689,84.242294 697.454407,86.909378 
	C697.782837,86.181335 697.725098,86.647308 697.506531,86.741959 
	C695.142944,87.765694 692.754150,88.731010 690.372192,89.712288 
	C690.170776,87.224037 689.468933,84.654037 689.859619,82.262520 
	C691.146545,74.385048 692.753357,66.556229 694.399719,58.742950 
	C694.997131,55.907799 695.493347,53.481495 691.202209,52.779510 
	C694.550415,51.898640 697.898621,51.017773 702.067627,49.920948 
	C700.998901,55.768711 700.006897,61.196369 698.925659,67.039734 
z"/>
<path fill="#282828" opacity="1.000000" stroke="none" 
	d="
M963.455811,89.768433 
	C961.359924,87.677475 958.590088,85.896591 958.130005,83.643951 
	C956.324951,74.806534 962.471375,65.868797 971.297363,64.488823 
	C973.511536,64.142639 976.938721,65.553535 978.202271,67.311424 
	C978.999207,68.419991 977.425110,72.348434 975.819031,73.798752 
	C973.589844,75.811607 970.432190,76.989937 967.485229,77.955002 
	C964.973083,78.777634 963.209473,79.933601 964.833374,82.371155 
	C965.866394,83.921638 968.116943,85.061852 970.023010,85.490906 
	C971.325073,85.783997 972.974731,84.532959 974.687134,84.462784 
	C972.200989,88.502457 968.251343,89.627014 963.455811,89.768433 
M972.892212,71.117302 
	C972.336548,69.550430 971.780884,67.983566 971.225159,66.416710 
	C969.803711,67.398941 967.896545,68.085136 967.075073,69.433029 
	C965.853699,71.437004 965.400024,73.908844 964.619568,76.181564 
	C965.041626,76.502800 965.463684,76.824036 965.885742,77.145271 
	C968.135742,75.380737 970.385742,73.616211 972.892212,71.117302 
z"/>
<path fill="#2A2A2A" opacity="1.000000" stroke="none" 
	d="
M828.075684,84.178268 
	C824.557922,89.196625 821.364746,94.495750 817.375549,99.106224 
	C815.577393,101.184494 812.192444,101.889801 808.496765,103.731697 
	C813.127625,97.968979 818.686462,93.835281 820.043518,88.610298 
	C821.515869,82.941368 819.076294,76.256409 818.267761,69.378212 
	C816.369507,70.386803 815.189575,71.013718 813.828003,71.737137 
	C813.724731,71.154137 813.439941,70.466972 813.603882,70.334381 
	C816.191833,68.240593 818.837341,66.218018 821.469727,64.179131 
	C822.648071,66.967529 824.190857,69.665741 824.908997,72.568016 
	C825.739807,75.925743 825.844910,79.463020 826.910828,83.119682 
	C827.729675,83.604095 827.902710,83.891182 828.075684,84.178268 
z"/>
<path fill="#272727" opacity="1.000000" stroke="none" 
	d="
M1012.284729,80.436707 
	C1012.735962,82.567276 1013.257446,84.288582 1014.072998,86.980461 
	C1014.622864,86.299271 1014.399292,86.854195 1014.016663,87.004852 
	C1011.643188,87.939339 1009.234009,88.783043 1006.836670,89.656876 
	C1006.514954,87.154358 1005.695557,84.593918 1005.978638,82.161758 
	C1006.512390,77.575302 1007.680969,73.062737 1008.627075,68.311722 
	C1007.357605,67.889091 1006.219666,67.510277 1005.090393,67.134315 
	C1008.824036,63.349461 1012.302063,59.823689 1015.780151,56.297913 
	C1016.219604,56.530556 1016.659058,56.763199 1017.098511,56.995842 
	C1016.687805,59.443939 1016.277039,61.892036 1015.817322,64.632195 
	C1017.527710,64.845024 1019.206665,65.053932 1020.885620,65.262848 
	C1020.958801,65.605339 1021.032043,65.947838 1021.105286,66.290329 
	C1019.262573,66.799126 1017.419861,67.307922 1014.964172,67.985985 
	C1014.167053,71.664787 1013.261047,75.846107 1012.284729,80.436707 
z"/>
<path fill="#272727" opacity="1.000000" stroke="none" 
	d="
M891.555298,70.452026 
	C893.430664,68.953995 895.043335,66.915916 897.034119,65.362389 
	C897.958740,64.640900 899.801941,64.395836 900.879211,64.820793 
	C901.579590,65.097054 902.270569,67.317581 901.861450,68.051018 
	C901.193115,69.248970 899.172363,70.972900 898.509338,70.681854 
	C894.710144,69.014259 893.436890,71.819427 892.578857,74.096069 
	C890.847595,78.689537 889.712830,83.507790 888.217712,88.624443 
	C886.692810,88.895378 884.806580,89.230499 882.370605,89.663307 
	C883.700134,82.797379 884.942871,76.379829 886.274963,69.500465 
	C884.520508,69.922783 883.364624,70.201027 882.208740,70.479263 
	C882.015747,70.121498 881.822754,69.763725 881.629761,69.405952 
	C884.584961,67.454872 887.540161,65.503792 890.495361,63.552711 
	C890.982483,63.801067 891.469543,64.049423 891.956665,64.297783 
	C891.786926,66.235283 891.617188,68.172791 891.555298,70.452026 
z"/>
<path fill="#292929" opacity="1.000000" stroke="none" 
	d="
M774.084717,83.248505 
	C772.406555,85.007782 770.961365,87.130867 768.972290,88.404724 
	C767.525879,89.330971 764.755066,89.979195 763.681519,89.208893 
	C762.540466,88.390129 762.146423,85.669388 762.406250,83.925117 
	C763.104980,79.232681 764.326111,74.618042 765.458801,69.427635 
	C763.779785,69.974594 762.778748,70.300682 761.777710,70.626778 
	C761.564331,70.277824 761.350891,69.928864 761.137512,69.579903 
	C764.106934,67.535965 767.076294,65.492020 770.838379,62.902447 
	C773.080994,71.040070 768.256042,77.541557 769.029175,85.418999 
	C770.821533,84.177711 772.068542,83.314140 773.678955,82.543816 
	C774.056580,82.840874 774.070679,83.044685 774.084717,83.248505 
z"/>
<path fill="#282828" opacity="1.000000" stroke="none" 
	d="
M710.858032,64.756821 
	C714.829468,63.179192 714.847412,65.518097 714.430969,67.876465 
	C713.626526,72.432350 712.600708,76.948769 711.720581,81.492004 
	C711.543579,82.405945 711.606018,83.366287 711.539246,84.673241 
	C713.079285,84.386917 714.265625,84.166367 715.651917,83.908623 
	C715.587463,84.514183 715.698975,85.083138 715.465210,85.353226 
	C714.821716,86.096481 714.141357,86.972473 713.281555,87.331482 
	C711.107178,88.239357 708.826416,88.892624 706.588318,89.647881 
	C706.172119,87.217064 705.182983,84.717377 705.465088,82.370529 
	C705.972839,78.147713 707.242737,74.016533 708.202026,69.813026 
	C706.978577,69.653954 706.140747,69.545021 704.113403,69.281425 
	C706.830505,67.406563 708.667236,66.139153 710.858032,64.756821 
z"/>
<path fill="#272727" opacity="1.000000" stroke="none" 
	d="
M774.483826,83.253448 
	C774.070679,83.044685 774.056580,82.840874 774.024902,82.331108 
	C775.785706,77.824348 778.057251,73.752312 779.197327,69.384903 
	C780.244202,65.374504 782.064331,64.212715 786.227783,65.400497 
	C785.007202,71.528473 783.793640,77.620781 782.438354,84.424934 
	C784.264221,83.716431 785.363464,83.289871 786.444519,82.870384 
	C786.613098,83.265343 786.873901,83.705528 786.812317,83.756516 
	C783.983337,86.099525 781.126160,88.408516 777.651062,91.224884 
	C776.432922,87.719162 775.657959,85.488792 774.483826,83.253448 
z"/>
<path fill="#232323" opacity="1.000000" stroke="none" 
	d="
M721.098206,73.913269 
	C722.403137,69.500389 721.535522,63.826328 729.136597,64.642792 
	C727.891357,70.803436 726.608765,77.148552 725.192688,84.154076 
	C726.969604,83.676666 728.207397,83.344101 730.157837,82.820038 
	C729.137329,84.179955 728.648682,85.229355 727.831787,85.838799 
	C725.985962,87.215935 724.070557,88.586464 721.982910,89.502907 
	C721.307373,89.799454 719.081055,88.501472 719.132507,88.223267 
	C719.839783,84.403069 717.065674,80.215614 720.323486,76.652901 
	C720.816956,76.113213 720.792419,75.099777 721.098206,73.913269 
z"/>
<path fill="#282828" opacity="1.000000" stroke="none" 
	d="
M993.155945,72.049324 
	C991.906433,75.800270 989.963562,79.482628 989.584045,83.319618 
	C989.116272,88.048805 987.030823,89.730934 982.129944,89.450958 
	C983.390808,83.031212 984.643677,76.652100 985.991150,69.791451 
	C984.331238,69.991142 983.189148,70.128548 982.046997,70.265961 
	C981.895447,69.890961 981.743896,69.515961 981.592407,69.140961 
	C984.495117,67.274643 987.397888,65.408318 991.484070,62.781113 
	C991.484070,65.967606 991.484070,67.804092 991.279785,70.298065 
	C991.768982,71.320145 992.462463,71.684731 993.155945,72.049324 
z"/>
<path fill="#282828" opacity="1.000000" stroke="none" 
	d="
M802.156006,72.049332 
	C800.906494,75.800285 798.963623,79.482643 798.584106,83.319633 
	C798.116272,88.048798 796.030823,89.730934 791.128906,89.450897 
	C792.390198,83.031082 793.643372,76.652046 794.991211,69.791405 
	C793.331238,69.991127 792.189148,70.128548 791.046997,70.265961 
	C790.895447,69.890961 790.743896,69.515953 790.592346,69.140945 
	C793.495117,67.274635 796.397888,65.408333 800.484070,62.781166 
	C800.484070,65.967606 800.484070,67.804092 800.279785,70.298065 
	C800.768982,71.320145 801.462463,71.684731 802.156006,72.049332 
z"/>
<path fill="#2D2D2D" opacity="1.000000" stroke="none" 
	d="
M828.352295,83.978333 
	C827.902710,83.891182 827.729675,83.604095 827.341064,83.183403 
	C829.376343,78.039848 833.455627,73.588890 831.524353,67.297997 
	C831.294678,66.549965 833.075134,65.184853 833.923828,64.105789 
	C834.962097,64.986343 836.782715,65.795197 836.871399,66.762764 
	C837.041260,68.616577 836.637085,70.785484 835.739380,72.422356 
	C833.595459,76.331749 831.026306,80.007996 828.352295,83.978333 
z"/>
<path fill="#2C2C2C" opacity="1.000000" stroke="none" 
	d="
M993.460266,71.895096 
	C992.462463,71.684731 991.768982,71.320145 991.080994,70.699066 
	C992.790344,68.892792 994.363647,67.152481 996.245728,65.862640 
	C997.428223,65.052269 999.127014,64.504517 1000.486389,64.679039 
	C1001.047974,64.751122 1002.041809,67.533051 1001.578186,68.182922 
	C1000.747498,69.347198 999.006470,69.930435 997.562622,70.567642 
	C996.358521,71.099045 995.035156,71.360085 993.460266,71.895096 
z"/>
<path fill="#2C2C2C" opacity="1.000000" stroke="none" 
	d="
M802.460266,71.895096 
	C801.462463,71.684731 800.768982,71.320145 800.080994,70.699089 
	C801.790344,68.892822 803.363708,67.152504 805.245728,65.862709 
	C806.428223,65.052292 808.127075,64.504410 809.486328,64.679039 
	C810.048096,64.751213 811.041809,67.533043 810.578186,68.182915 
	C809.747498,69.347198 808.006470,69.930382 806.562561,70.567612 
	C805.358521,71.099022 804.035156,71.360092 802.460266,71.895096 
z"/>
<path fill="#F8F7FE" opacity="1.000000" stroke="none" 
	d="
M505.727722,45.345116 
	C507.600037,53.008553 509.560425,60.319168 510.714478,67.754929 
	C510.988525,69.520470 508.904297,72.902069 507.281769,73.367264 
	C505.592560,73.851578 502.309845,72.275970 501.182495,70.612526 
	C496.458038,63.641472 495.559113,55.492271 495.852051,47.319183 
	C495.910767,45.680199 498.063660,43.089706 499.601624,42.800106 
	C501.371429,42.466850 503.530670,44.201542 505.727722,45.345116 
z"/>
<path fill="#F8F7FE" opacity="1.000000" stroke="none" 
	d="
M310.816681,52.356033 
	C311.578186,57.821793 312.600616,62.885944 312.736298,67.973740 
	C312.785553,69.821037 310.979156,72.993858 309.550537,73.288544 
	C307.673248,73.675766 304.452240,72.425255 303.343292,70.819481 
	C298.457642,63.745239 297.479706,55.462082 297.910553,47.115685 
	C297.994263,45.494583 300.178925,43.097527 301.801727,42.693314 
	C303.370667,42.302509 306.015564,43.549622 307.196198,44.927170 
	C308.853546,46.860912 309.594147,49.580376 310.816681,52.356033 
z"/>
<path fill="#F6F6FE" opacity="1.000000" stroke="none" 
	d="
M117.159668,69.775879 
	C115.398712,62.705257 113.385445,56.030602 112.448441,49.208130 
	C112.171844,47.194118 114.540619,43.479080 116.421890,42.900604 
	C118.139458,42.372459 122.313675,44.592167 122.845444,46.367554 
	C125.006203,53.581451 126.415520,61.055630 127.526237,68.519501 
	C127.751694,70.034531 125.270569,73.461815 124.401169,73.343056 
	C121.939285,73.006744 119.666115,71.288986 117.159668,69.775879 
z"/>
<path fill="#F4F4F4" opacity="1.000000" stroke="none" 
	d="
M863.569397,74.567642 
	C864.123596,71.898834 864.561584,69.643471 864.980347,67.486977 
	C870.534607,66.829216 872.500183,68.128204 871.718811,73.065094 
	C871.039978,77.354630 869.124084,81.508446 867.295654,85.512543 
	C866.853882,86.479874 864.599792,86.619598 863.179199,87.139931 
	C862.788635,85.861382 861.992493,84.550980 862.089844,83.310745 
	C862.309387,80.515755 862.971252,77.755486 863.569397,74.567642 
z"/>
<path fill="#F4F4F4" opacity="1.000000" stroke="none" 
	d="
M947.849487,71.391197 
	C946.465698,76.326218 945.247437,80.929176 943.486755,85.314392 
	C943.073364,86.344109 940.827332,86.638084 939.424377,87.270538 
	C938.961121,85.874573 937.950195,84.402992 938.130676,83.095917 
	C938.853943,77.857620 939.946716,72.670349 940.891541,67.525635 
	C944.665405,66.267601 946.997742,67.175919 947.849487,71.391197 
z"/>
<path fill="#F6F6F6" opacity="1.000000" stroke="none" 
	d="
M912.133789,69.388382 
	C913.705139,68.110001 915.123413,67.188835 916.541626,66.267700 
	C917.428528,67.744591 919.149597,69.280586 919.049866,70.687531 
	C918.715759,75.401695 917.940796,80.119385 916.851746,84.721451 
	C916.571411,85.906067 914.189758,87.675140 913.354370,87.401611 
	C911.987122,86.953972 910.117859,85.004456 910.177795,83.771957 
	C910.406067,79.078400 911.321716,74.418243 912.133789,69.388382 
z"/>
<path fill="#E9E9E9" opacity="1.000000" stroke="none" 
	d="
M972.764038,71.484489 
	C970.385742,73.616211 968.135742,75.380737 965.885742,77.145271 
	C965.463684,76.824036 965.041626,76.502800 964.619568,76.181564 
	C965.400024,73.908844 965.853699,71.437004 967.075073,69.433029 
	C967.896545,68.085136 969.803711,67.398941 971.225159,66.416702 
	C971.780884,67.983566 972.336548,69.550430 972.764038,71.484489 
z"/>
</svg>