<?xml version="1.0" standalone="no"?>
<!DOCTYPE svg PUBLIC "-//W3C//DTD SVG 20010904//EN"
 "http://www.w3.org/TR/2001/REC-SVG-20010904/DTD/svg10.dtd">
<svg version="1.0" xmlns="http://www.w3.org/2000/svg"
 width="1052.000000pt" height="111.000000pt" viewBox="0 0 1052.000000 111.000000"
 preserveAspectRatio="xMidYMid meet">

<g transform="translate(0.000000,111.000000) scale(0.100000,-0.100000)"
fill="#000000" stroke="none">
<path d="M159 1046 c-34 -20 -74 -81 -93 -146 -25 -83 -1 -140 59 -140 38 0
71 24 109 78 33 48 54 58 74 38 12 -12 15 -44 14 -163 -2 -170 -11 -280 -24
-306 -5 -9 -26 -25 -46 -35 -48 -22 -55 -60 -17 -90 56 -44 328 -56 418 -19
65 28 69 80 9 112 -58 32 -62 46 -62 277 0 175 2 209 16 222 8 9 19 16 23 16
14 0 39 -26 64 -65 33 -55 50 -67 94 -67 80 0 108 93 59 197 -13 28 -38 63
-57 79 -29 25 -38 27 -74 20 -51 -10 -470 -11 -510 -1 -20 5 -39 2 -56 -7z"/>
<path d="M1110 806 c-75 -21 -123 -48 -171 -96 -55 -55 -79 -118 -79 -210 0
-124 67 -213 189 -250 110 -35 226 -19 329 43 96 57 142 135 142 239 0 112
-68 212 -175 259 -61 27 -171 34 -235 15z m95 -140 c28 -28 52 -104 61 -190 5
-51 3 -65 -13 -85 -46 -56 -105 7 -128 137 -19 103 -18 119 5 142 26 26 46 25
75 -4z"/>
<path d="M1755 804 c-38 -8 -95 -27 -125 -42 -64 -32 -74 -57 -37 -94 30 -30
42 -115 32 -219 -6 -58 -12 -77 -36 -104 -36 -41 -36 -60 -2 -82 39 -26 243
-26 291 0 36 20 40 40 17 102 -18 51 -20 220 -2 255 9 17 22 26 44 28 49 5 63
-32 63 -162 0 -97 -2 -107 -25 -134 -31 -37 -33 -77 -3 -93 12 -6 61 -14 109
-17 106 -6 184 10 205 43 14 21 13 27 -5 64 -18 34 -21 59 -21 155 0 124 8
146 55 146 44 0 55 -33 55 -159 0 -97 -3 -118 -21 -147 -40 -65 13 -99 156
-99 94 0 138 13 159 48 9 14 6 26 -11 57 -21 36 -23 52 -23 191 0 171 -13 219
-69 252 -74 43 -170 30 -251 -34 -28 -22 -53 -39 -54 -37 -49 79 -97 104 -177
95 -56 -7 -95 -25 -144 -68 -39 -34 -55 -31 -55 11 0 65 -8 68 -125 44z"/>
<path d="M2962 805 c-155 -44 -240 -137 -250 -276 -9 -123 38 -208 144 -260
137 -67 316 -40 434 67 143 130 96 376 -88 455 -62 27 -171 33 -240 14z m101
-145 c47 -55 74 -235 40 -272 -56 -62 -129 52 -134 211 -3 86 46 118 94 61z"/>
<path d="M3585 805 c-38 -8 -90 -25 -115 -38 -37 -19 -46 -28 -48 -55 -3 -26
1 -34 22 -44 37 -16 49 -69 40 -175 -6 -79 -10 -89 -41 -123 -77 -86 -13 -130
187 -129 123 1 181 15 197 51 18 36 7 56 -38 75 -43 17 -44 21 -53 120 -7 73
1 123 20 130 8 3 30 -9 49 -26 82 -72 215 -11 215 99 0 126 -150 175 -228 76
-29 -38 -43 -35 -56 9 -10 36 -15 40 -46 42 -19 1 -66 -5 -105 -12z"/>
<path d="M4222 804 c-92 -20 -150 -48 -164 -79 -11 -25 -9 -29 26 -58 l38 -32
-4 -117 c-3 -116 -3 -117 -35 -150 -83 -86 -2 -134 210 -126 141 5 177 21 177
79 0 22 -7 30 -39 42 -22 9 -42 20 -45 26 -13 21 -19 187 -7 209 15 29 21 28
66 -8 120 -95 278 57 187 180 -28 37 -61 51 -110 47 -35 -4 -53 -13 -87 -47
-46 -45 -53 -43 -64 14 -6 28 -11 31 -46 33 -22 1 -68 -5 -103 -13z"/>
<path d="M4942 805 c-155 -44 -240 -137 -250 -276 -9 -123 38 -208 144 -260
137 -67 316 -40 434 67 143 130 96 376 -88 455 -62 27 -171 33 -240 14z m101
-145 c47 -55 74 -235 40 -272 -56 -62 -129 52 -134 211 -3 86 46 118 94 61z"/>
<path d="M5473 810 c-53 -11 -80 -25 -93 -50 -14 -25 -3 -49 26 -56 34 -9 56
-37 189 -253 74 -120 127 -197 142 -204 41 -19 68 5 133 117 65 111 82 131
102 123 8 -2 41 -50 76 -105 62 -100 100 -142 130 -142 32 0 91 82 171 241 98
193 119 224 165 239 41 13 52 35 32 65 -16 25 -54 35 -131 35 -104 0 -151 -35
-119 -89 20 -33 15 -62 -19 -112 -29 -43 -45 -43 -74 0 -35 52 -38 75 -13 109
49 66 -19 97 -190 89 -127 -6 -180 -24 -180 -61 0 -16 9 -32 25 -42 39 -26 48
-49 31 -82 -28 -54 -41 -57 -75 -15 -39 46 -47 76 -32 110 17 37 -6 67 -63 82
-51 12 -170 13 -233 1z"/>
<path d="M6953 596 c-45 -12 -66 -26 -40 -26 9 0 19 -5 22 -10 3 -6 -8 -80
-25 -166 -17 -86 -29 -162 -26 -171 7 -17 37 -10 79 19 32 23 37 44 7 28 -27
-14 -26 -7 10 181 16 85 30 155 30 157 0 3 -8 1 -57 -12z"/>
<path d="M10116 519 c-14 -11 -26 -29 -26 -39 0 -11 -8 -20 -22 -22 -28 -4
-36 -28 -9 -28 17 0 20 -5 16 -22 -38 -160 -36 -206 8 -192 33 10 93 57 78 62
-6 2 -18 -2 -27 -8 -24 -21 -28 -4 -14 72 17 97 18 98 51 98 16 0 29 5 29 10
0 6 -12 10 -26 10 -25 0 -26 2 -20 40 7 45 0 49 -38 19z"/>
<path d="M8617 492 c-15 -9 -30 -25 -33 -34 -3 -10 -11 -18 -18 -18 -8 0 -20
-7 -27 -16 -12 -15 -11 -16 9 -10 28 9 28 5 -6 -159 -23 -112 -30 -131 -49
-140 -54 -23 -5 -32 87 -15 39 7 42 9 21 15 -20 7 -22 12 -17 44 3 20 6 42 6
50 0 8 6 11 16 7 9 -3 35 2 58 12 136 61 151 253 19 239 -27 -2 -33 1 -35 20
-3 21 -4 21 -31 5z m83 -71 c16 -31 12 -72 -14 -127 -25 -54 -41 -67 -67 -53
-15 7 -14 16 2 101 10 51 19 94 19 96 0 1 11 2 25 2 14 0 29 -8 35 -19z"/>
<path d="M9373 490 c-18 -11 -33 -24 -33 -30 0 -6 -11 -16 -25 -22 -30 -13
-34 -32 -5 -23 25 8 25 14 -6 -141 -28 -140 -37 -164 -59 -164 -8 0 -15 -4
-15 -10 0 -12 34 -12 105 0 41 6 46 9 28 15 -24 8 -27 22 -17 74 5 23 11 30
22 26 23 -9 100 34 129 72 19 24 28 50 31 86 5 71 -11 90 -74 93 -44 2 -49 4
-46 23 4 26 5 26 -35 1z m88 -72 c17 -32 -6 -122 -41 -161 -26 -28 -30 -30
-44 -17 -12 13 -12 25 0 95 8 44 17 86 19 93 7 20 53 14 66 -10z"/>
<path d="M6564 491 c-30 -13 -71 -66 -79 -101 -9 -41 11 -94 46 -124 91 -77
219 -15 219 106 0 41 -5 54 -33 84 -28 31 -41 37 -83 40 -27 2 -58 0 -70 -5z"/>
<path d="M7100 462 c-29 -14 -70 -44 -70 -54 0 -5 10 -4 21 3 24 13 24 11 -1
-107 -7 -33 -10 -69 -7 -78 11 -28 55 -12 105 37 l43 42 -7 -41 c-4 -26 -2
-44 5 -48 13 -9 60 15 86 44 l19 21 -27 -6 c-26 -7 -28 -5 -23 16 27 121 36
161 36 168 0 14 -50 -1 -59 -18 -5 -9 -12 -35 -16 -58 -7 -44 -65 -123 -91
-123 -17 0 -17 -4 5 100 22 105 19 119 -19 102z"/>
<path d="M7375 439 c-19 -17 -32 -35 -29 -40 3 -5 12 -2 20 6 21 20 31 12 44
-36 10 -37 9 -44 -15 -75 -20 -26 -33 -34 -53 -32 -19 2 -27 -2 -30 -16 -2
-10 1 -23 6 -28 17 -17 48 1 78 43 l28 40 20 -43 c17 -35 25 -43 46 -40 28 3
70 39 70 60 0 12 -4 12 -20 -3 -26 -23 -36 -13 -55 48 -13 43 -12 48 7 72 15
19 28 26 44 22 28 -5 47 14 38 37 -10 26 -35 19 -73 -23 l-36 -39 -17 39 c-9
21 -21 39 -27 39 -6 0 -26 -14 -46 -31z"/>
<path d="M7650 448 c-19 -13 -36 -30 -38 -38 -5 -13 -3 -13 11 -1 15 12 17 11
17 -5 0 -11 -7 -52 -17 -92 -15 -66 -15 -74 -1 -88 22 -22 52 -11 99 39 l40
40 -3 -44 c-3 -42 -2 -44 22 -41 13 1 37 14 52 29 28 27 31 46 3 23 -13 -11
-15 -8 -15 16 0 16 8 64 19 106 l18 78 -26 -7 c-39 -9 -39 -9 -51 -69 -8 -40
-22 -67 -47 -95 -19 -21 -39 -39 -44 -39 -13 0 -11 40 7 116 22 97 13 111 -46
72z"/>
<path d="M7940 448 c-18 -13 -36 -30 -38 -38 -5 -13 -3 -13 12 -1 9 8 19 11
22 8 5 -5 -12 -105 -31 -180 -6 -23 -5 -24 26 -18 32 6 34 10 46 71 15 76 41
115 74 115 32 0 49 12 49 35 0 38 -33 33 -72 -10 l-38 -42 3 37 c3 47 -10 52
-53 23z"/>
<path d="M8155 439 c-19 -17 -32 -35 -29 -41 3 -5 14 -2 24 7 17 15 18 15 24
-12 4 -15 10 -64 15 -107 11 -93 5 -105 -64 -155 -53 -38 -58 -53 -14 -41 46
14 62 31 160 178 89 132 103 168 74 192 -25 21 -44 -4 -38 -49 4 -30 -1 -51
-23 -92 l-29 -52 -6 29 c-4 16 -7 46 -8 67 -1 43 -25 107 -40 107 -6 0 -26
-14 -46 -31z"/>
<path d="M8847 445 c-39 -27 -53 -54 -17 -35 25 13 25 2 5 -90 -22 -99 -20
-110 12 -101 23 6 29 16 43 73 20 84 44 122 73 114 26 -6 47 10 47 36 0 38
-32 33 -69 -10 l-36 -41 0 36 c0 20 -5 38 -10 40 -6 2 -27 -8 -48 -22z"/>
<path d="M9124 459 c-98 -29 -141 -199 -61 -237 83 -40 187 48 187 157 0 69
-53 103 -126 80z m44 -21 c30 -30 5 -190 -33 -204 -33 -13 -47 16 -43 91 5 96
40 149 76 113z"/>
<path d="M9671 456 c-56 -20 -94 -76 -99 -145 -4 -50 -1 -62 17 -80 11 -11 31
-21 43 -21 26 0 102 35 119 56 20 25 2 27 -29 4 -39 -29 -79 -21 -88 16 -8 31
-3 36 58 58 43 16 88 55 88 77 0 16 -40 49 -57 48 -10 0 -34 -6 -52 -13z m49
-46 c0 -9 -8 -24 -17 -32 -21 -18 -63 -41 -68 -36 -7 7 26 84 41 95 21 15 44
1 44 -27z"/>
<path d="M9843 443 c-23 -15 -39 -31 -37 -35 3 -5 12 -4 20 3 8 6 17 10 20 7
2 -3 -4 -47 -16 -99 -11 -51 -20 -96 -20 -99 0 -4 13 -5 30 -2 30 4 34 10 45
77 4 22 16 57 28 78 18 33 25 37 48 32 22 -5 30 -2 39 16 10 17 9 24 -2 36
-20 19 -44 8 -69 -33 -25 -41 -33 -43 -26 -7 5 28 0 53 -12 53 -4 0 -26 -12
-48 -27z"/>
<path d="M10251 444 c-17 -14 -31 -33 -31 -41 0 -14 2 -14 19 1 24 22 27 15
42 -104 13 -105 8 -118 -66 -171 -25 -18 -45 -36 -45 -40 0 -13 74 12 87 30
37 46 147 206 169 245 30 54 30 101 -1 101 -17 0 -21 -8 -25 -55 -3 -30 -17
-75 -30 -100 l-24 -45 -12 88 c-11 81 -25 117 -44 117 -5 0 -22 -12 -39 -26z"/>
</g>
</svg>
