<svg version="1.1" id="Layer_1" xmlns="http://www.w3.org/2000/svg" xmlns:xlink="http://www.w3.org/1999/xlink" x="0px" y="0px"
	 width="100%" viewBox="0 0 1089 134" enable-background="new 0 0 1089 134" xml:space="preserve">
<path fill="#FDFDFF" opacity="1.000000" stroke="none" 
	d="
M837.000000,135.000000 
	C558.000000,135.000000 279.500000,135.000000 1.000000,135.000000 
	C1.000000,90.333336 1.000000,45.666668 1.000000,1.000000 
	C364.000000,1.000000 727.000000,1.000000 1090.000000,1.000000 
	C1090.000000,45.666668 1090.000000,90.333336 1090.000000,135.000000 
	C1005.833313,135.000000 921.666687,135.000000 837.000000,135.000000 
M925.086121,111.343651 
	C927.475708,117.722321 930.531128,123.098701 938.672729,123.062614 
	C946.738037,123.026863 949.763733,117.818207 952.238098,111.377029 
	C956.588684,100.051514 961.136658,88.798615 965.830994,77.611397 
	C966.653992,75.650040 968.597351,74.158798 970.023254,72.450417 
	C971.365295,74.183868 973.126831,75.733238 973.981262,77.680618 
	C979.590637,90.465904 984.704956,103.476120 990.584290,116.132607 
	C994.672974,124.934410 1005.622009,125.608223 1011.302490,117.732246 
	C1013.221069,115.072197 1014.746643,112.024193 1015.925049,108.951492 
	C1024.733276,85.984444 1033.257935,62.907227 1042.260498,40.017513 
	C1043.959351,35.698128 1046.942383,31.642426 1050.129761,28.203749 
	C1055.557251,22.348404 1054.239990,14.649094 1046.327271,13.515658 
	C1038.081909,12.334541 1029.507935,12.891955 1021.129089,13.454993 
	C1017.481689,13.700083 1014.320618,16.210146 1014.005676,20.641245 
	C1013.711121,24.785517 1016.828857,26.063427 1019.637634,27.990860 
	C1021.489136,29.261335 1023.950317,32.227890 1023.550659,33.759758 
	C1021.503662,41.605015 1018.999207,49.389809 1015.892883,56.879803 
	C1013.695007,62.179298 1010.755310,62.129974 1008.023071,56.897984 
	C1004.566101,50.278233 1001.744019,43.328533 998.594177,36.546154 
	C996.797485,32.677410 997.633240,29.818237 1000.954712,26.971302 
	C1006.523743,22.197931 1005.481934,16.794674 998.353760,14.795897 
	C983.328857,10.582834 968.085693,10.672923 953.064270,14.824245 
	C950.311523,15.585000 947.108459,18.271517 946.072388,20.854858 
	C944.520996,24.722908 947.686951,27.329748 950.925720,29.614843 
	C955.921204,33.139587 959.277344,38.353695 958.561157,44.413826 
	C957.994507,49.208443 955.429871,53.835342 953.338135,58.344524 
	C952.597473,59.941177 950.611206,61.998756 949.231934,61.970528 
	C947.830627,61.941845 945.838318,59.848400 945.209717,58.230030 
	C942.085938,50.186916 939.185181,42.047482 936.557007,33.829662 
	C936.019836,32.150135 936.557129,29.793564 937.333984,28.082678 
	C941.581848,18.727392 939.440247,14.193111 929.304749,13.051113 
	C922.048950,12.233587 914.643188,11.676793 907.393677,12.212459 
	C901.560181,12.643494 895.500366,14.101343 890.198425,16.535566 
	C884.394775,19.200163 884.909668,25.956650 889.810486,29.959606 
	C892.736206,32.349270 895.473511,35.656128 896.866943,39.124630 
	C906.407104,62.871185 915.568848,86.769745 925.086121,111.343651 
M376.505432,91.959328 
	C376.386993,76.177925 376.044159,60.393280 376.271973,44.616875 
	C376.351471,39.112606 376.650177,33.453510 381.707123,29.182526 
	C388.598480,23.362230 387.257812,15.998720 378.531006,14.102344 
	C370.886017,12.441055 362.760956,12.658995 354.848236,12.662549 
	C348.306580,12.665488 343.626404,16.296421 340.712189,22.156260 
	C336.937622,29.746120 333.182617,37.346195 329.337158,44.900108 
	C327.379547,48.745510 325.387573,52.588192 323.140076,56.266491 
	C321.380066,59.146965 318.844116,59.567532 316.729828,56.702785 
	C313.978546,52.974945 311.279968,49.147522 309.094696,45.075321 
	C304.537323,36.582855 300.558228,27.774466 295.843933,19.375170 
	C294.426666,16.850132 291.644562,14.044393 289.008423,13.432691 
	C277.991241,10.876212 266.879944,11.214601 256.085419,14.984858 
	C252.668335,16.178356 249.919128,18.217337 249.666367,22.405945 
	C249.420044,26.487364 252.072113,28.457043 255.105240,29.966261 
	C258.916199,31.862516 260.808502,34.783871 261.174835,38.955765 
	C263.062592,60.454105 261.444489,81.835434 258.682159,103.132668 
	C258.402893,105.285645 255.140182,107.013237 253.355255,109.021118 
	C251.835754,110.730438 249.337051,112.540527 249.306763,114.340279 
	C249.273834,116.296974 251.164658,118.994110 252.986618,120.100227 
	C255.433167,121.585541 258.650452,122.621017 261.479553,122.500725 
	C269.533325,122.158279 277.621124,121.493462 285.547638,120.108833 
	C287.418976,119.781944 289.573639,116.270683 289.958069,113.952370 
	C290.208160,112.443947 287.522919,110.418655 286.096710,108.670609 
	C284.575836,106.806519 281.736084,105.057541 281.642822,103.152069 
	C281.182373,93.745338 281.372253,84.302132 281.544861,74.875679 
	C281.563873,73.837540 283.065887,71.906898 283.657440,71.989265 
	C284.911316,72.163841 286.431366,73.141861 287.102264,74.241783 
	C288.650848,76.780624 289.780701,79.578125 291.040741,82.289139 
	C296.083252,93.138298 300.886688,104.106476 306.235443,114.802147 
	C309.020416,120.371140 312.550415,120.346291 315.658295,114.921089 
	C318.203613,110.478020 319.952393,105.584045 322.150085,100.935249 
	C325.979187,92.835823 329.769470,84.713417 333.863251,76.748260 
	C334.556824,75.398743 336.688416,74.788277 338.155609,73.836365 
	C339.003357,75.341431 340.548187,76.832954 340.577728,78.353928 
	C340.703491,84.826172 340.342194,91.306488 340.234680,97.785118 
	C340.161011,102.225998 338.454681,105.537621 334.864960,108.410591 
	C329.888153,112.393692 330.749084,117.453621 336.547272,120.127655 
	C338.627594,121.087044 340.955933,121.879883 343.214752,122.014275 
	C351.343048,122.497871 359.508942,123.123482 367.622742,122.785599 
	C372.486053,122.583076 377.540894,121.306122 382.035583,119.396362 
	C387.351166,117.137810 388.096252,111.150749 383.512817,108.314919 
	C377.430481,104.551704 376.486176,99.093712 376.505432,91.959328 
M655.417603,122.204941 
	C665.540588,122.145096 675.668335,122.236641 685.783264,121.919487 
	C688.327148,121.839729 691.025391,120.814423 693.311584,119.587830 
	C698.291626,116.915977 698.798401,110.731285 693.999390,107.887024 
	C689.369629,105.143082 687.664124,101.363533 687.485779,96.421257 
	C687.335815,92.264313 686.884338,88.076614 687.231445,83.958588 
	C687.447815,81.392075 688.701843,76.923210 689.836731,76.810951 
	C692.799072,76.517937 696.349487,77.545265 698.900879,79.214577 
	C700.872681,80.504692 702.068848,83.428200 702.928589,85.865822 
	C704.248291,89.607559 705.009338,93.549133 705.961548,97.417198 
	C711.397461,119.498993 719.829468,125.645859 742.569885,124.080734 
	C742.736145,124.069298 742.913757,124.097618 743.067322,124.048546 
	C747.461304,122.644615 752.277893,121.920418 756.085938,119.565773 
	C758.379517,118.147614 759.869385,114.274033 760.191223,111.336372 
	C760.339966,109.978264 756.677734,108.365341 755.021973,106.605782 
	C752.957458,104.411827 750.831238,102.139206 749.400024,99.533485 
	C748.417358,97.744270 748.548828,95.333702 748.222900,93.194695 
	C746.566772,82.327072 742.160461,73.547249 730.932983,69.624374 
	C729.632385,69.169922 728.219971,67.552933 727.927124,66.237289 
	C727.743469,65.411903 729.353210,63.794037 730.503479,63.127201 
	C739.933533,57.660423 743.561218,49.125420 742.903442,38.762592 
	C742.222839,28.040569 735.874390,21.106884 726.315430,16.980335 
	C717.392883,13.128505 707.937439,12.850957 698.379944,13.013575 
	C686.423523,13.217011 674.452820,12.789568 662.504211,13.154649 
	C656.441284,13.339897 650.287537,14.192715 644.439575,15.742674 
	C642.472412,16.264093 640.322815,19.780718 640.116821,22.094002 
	C639.953125,23.932261 642.200195,26.769220 644.117676,27.856726 
	C649.179565,30.727514 650.828735,35.229679 650.885803,40.365589 
	C651.079895,57.833736 651.021362,75.305191 650.978577,92.775177 
	C650.964172,98.648186 648.699585,103.268143 643.479431,106.521454 
	C638.530701,109.605644 638.404236,115.080070 643.434875,118.137093 
	C646.729980,120.139465 650.820007,120.833771 655.417603,122.204941 
M621.711304,123.579041 
	C625.963562,121.539513 630.734009,120.147110 634.320312,117.275803 
	C637.806824,114.484375 637.067200,108.500084 633.587646,107.681450 
	C625.798340,105.848877 624.979797,100.027611 624.072510,93.734909 
	C622.492798,82.779114 618.267700,73.629143 606.759644,69.664726 
	C605.407288,69.198837 603.643616,67.575676 603.578064,66.404633 
	C603.515808,65.292091 605.219788,63.709496 606.510132,62.952000 
	C615.571045,57.632946 618.938660,49.431709 618.598816,39.393913 
	C618.261414,29.428627 613.221741,21.984741 604.312378,18.309778 
	C597.539246,15.515943 590.001587,13.554949 582.715149,13.232594 
	C566.130981,12.498898 549.488098,12.799109 532.878235,13.133883 
	C528.352234,13.225105 523.558167,14.250230 519.427124,16.071552 
	C514.343811,18.312712 513.874451,25.065516 518.415894,27.143276 
	C525.167419,30.232174 526.784119,35.832901 526.845215,42.240868 
	C527.000610,58.561184 526.914246,74.883904 526.905823,91.205643 
	C526.902466,97.749290 524.904663,103.132492 518.896423,106.763908 
	C514.660156,109.324295 514.422058,114.504517 518.331726,117.563766 
	C520.476929,119.242332 523.258606,120.861183 525.865295,121.063255 
	C536.093140,121.856155 546.364502,122.335800 556.621826,122.373466 
	C560.506287,122.387733 564.610535,121.422699 568.234741,119.961662 
	C574.059448,117.613533 574.926941,110.946335 569.690918,107.853134 
	C564.589600,104.839539 563.325989,100.520821 563.146912,95.358749 
	C562.991150,90.866661 562.918396,86.363930 563.038696,81.872047 
	C563.179199,76.627724 565.463379,75.138435 570.520813,76.651283 
	C576.538574,78.451385 578.155273,83.584961 579.698181,88.743866 
	C581.788635,95.733658 583.414734,102.890862 585.955017,109.709915 
	C588.754456,117.224754 594.458496,122.182922 602.521667,123.230980 
	C608.565125,124.016518 614.752197,123.698303 621.711304,123.579041 
M205.533035,119.174217 
	C207.986740,118.146942 210.501205,117.243401 212.884659,116.073059 
	C234.356201,105.529915 246.741394,82.597145 242.550690,61.242332 
	C235.750565,26.590586 208.671265,7.104610 173.512131,13.083800 
	C124.395409,21.436628 116.153633,71.971634 136.617065,100.214020 
	C151.296555,120.473755 178.182739,128.094574 205.533035,119.174217 
M485.026367,112.570412 
	C503.044006,100.081886 512.223389,83.029427 508.339020,61.176632 
	C501.849487,24.667822 470.719177,5.240476 434.492371,13.982151 
	C412.684967,19.244360 395.873993,36.924934 392.974243,57.647972 
	C389.465210,82.725334 399.470673,104.689766 420.687927,115.829628 
	C442.226868,127.138374 463.671936,125.104218 485.026367,112.570412 
M882.272888,67.573257 
	C882.054749,65.094528 882.082336,62.564945 881.581543,60.144714 
	C874.559570,26.211187 847.325867,7.132914 812.703125,13.075464 
	C763.491333,21.522039 754.704712,73.069328 776.850464,101.383560 
	C791.370972,119.948555 811.218384,125.361305 833.914062,122.052841 
	C862.057251,117.950279 882.191772,95.624710 882.272888,67.573257 
M109.797348,52.861473 
	C117.466644,52.175499 121.380623,49.502556 122.008675,43.617767 
	C123.287468,31.635897 119.299004,21.566446 109.533127,14.348169 
	C107.377792,12.755091 103.867195,11.928121 101.184517,12.284198 
	C78.943367,15.236309 56.668617,14.605319 34.477009,12.549125 
	C28.120506,11.960154 23.829449,13.480026 19.992828,17.851044 
	C14.097846,24.567129 10.756474,32.475498 10.145487,41.343803 
	C9.848181,45.659115 11.429263,49.651546 15.485634,51.915756 
	C19.451895,54.129681 23.473032,53.240620 26.627413,50.435219 
	C29.693777,47.708092 32.103905,44.249554 34.853298,41.157623 
	C37.264351,38.446182 38.985939,33.161842 43.352619,35.415894 
	C45.571514,36.561275 46.779743,41.618469 46.726883,44.879433 
	C46.470913,60.670956 45.573826,76.451012 45.027824,92.239410 
	C44.800285,98.819061 42.861252,103.555069 35.633804,105.548973 
	C29.661245,107.196671 29.016289,113.853630 34.289906,117.353294 
	C36.978878,119.137741 40.256245,120.363190 43.437313,121.021523 
	C56.937435,123.815460 70.588364,123.752678 84.160851,121.779533 
	C88.122871,121.203545 92.283722,119.618156 95.571815,117.358223 
	C100.143585,114.216003 99.572823,107.164673 94.605606,105.591148 
	C85.743851,102.783882 84.225655,96.330193 84.256607,88.486938 
	C84.313148,74.159279 84.241920,59.831097 84.305954,45.503498 
	C84.315521,43.363262 84.361710,41.058632 85.144447,39.136963 
	C85.805000,37.515255 87.384232,35.512119 88.877975,35.196182 
	C90.396484,34.875015 92.757187,35.984894 93.942123,37.233753 
	C95.731583,39.119743 96.855446,41.649769 98.200340,43.942371 
	C100.712502,48.224781 103.640427,51.966705 109.797348,52.861473 
M1045.008057,102.814728 
	C1045.011597,103.976616 1044.910645,105.149834 1045.035400,106.298576 
	C1045.889404,114.165962 1051.059692,120.215469 1058.644409,122.294868 
	C1065.746338,124.241905 1073.250854,121.799202 1077.812378,116.055511 
	C1082.399170,110.280350 1083.020142,101.484756 1079.070801,94.998146 
	C1075.178345,88.605148 1069.202637,85.578880 1061.877808,86.169312 
	C1053.008667,86.884209 1047.686157,92.230865 1045.008057,102.814728 
z"/>
<path fill="#1102E8" opacity="1.000000" stroke="none" 
	d="
M924.969360,110.981491 
	C915.568848,86.769745 906.407104,62.871185 896.866943,39.124630 
	C895.473511,35.656128 892.736206,32.349270 889.810486,29.959606 
	C884.909668,25.956650 884.394775,19.200163 890.198425,16.535566 
	C895.500366,14.101343 901.560181,12.643494 907.393677,12.212459 
	C914.643188,11.676793 922.048950,12.233587 929.304749,13.051113 
	C939.440247,14.193111 941.581848,18.727392 937.333984,28.082678 
	C936.557129,29.793564 936.019836,32.150135 936.557007,33.829662 
	C939.185181,42.047482 942.085938,50.186916 945.209717,58.230030 
	C945.838318,59.848400 947.830627,61.941845 949.231934,61.970528 
	C950.611206,61.998756 952.597473,59.941177 953.338135,58.344524 
	C955.429871,53.835342 957.994507,49.208443 958.561157,44.413826 
	C959.277344,38.353695 955.921204,33.139587 950.925720,29.614843 
	C947.686951,27.329748 944.520996,24.722908 946.072388,20.854858 
	C947.108459,18.271517 950.311523,15.585000 953.064270,14.824245 
	C968.085693,10.672923 983.328857,10.582834 998.353760,14.795897 
	C1005.481934,16.794674 1006.523743,22.197931 1000.954712,26.971302 
	C997.633240,29.818237 996.797485,32.677410 998.594177,36.546154 
	C1001.744019,43.328533 1004.566101,50.278233 1008.023071,56.897984 
	C1010.755310,62.129974 1013.695007,62.179298 1015.892883,56.879803 
	C1018.999207,49.389809 1021.503662,41.605015 1023.550659,33.759758 
	C1023.950317,32.227890 1021.489136,29.261335 1019.637634,27.990860 
	C1016.828857,26.063427 1013.711121,24.785517 1014.005676,20.641245 
	C1014.320618,16.210146 1017.481689,13.700083 1021.129089,13.454993 
	C1029.507935,12.891955 1038.081909,12.334541 1046.327271,13.515658 
	C1054.239990,14.649094 1055.557251,22.348404 1050.129761,28.203749 
	C1046.942383,31.642426 1043.959351,35.698128 1042.260498,40.017513 
	C1033.257935,62.907227 1024.733276,85.984444 1015.925049,108.951492 
	C1014.746643,112.024193 1013.221069,115.072197 1011.302490,117.732246 
	C1005.622009,125.608223 994.672974,124.934410 990.584290,116.132607 
	C984.704956,103.476120 979.590637,90.465904 973.981262,77.680618 
	C973.126831,75.733238 971.365295,74.183868 970.023254,72.450424 
	C968.597351,74.158798 966.653992,75.650040 965.830994,77.611397 
	C961.136658,88.798615 956.588684,100.051514 952.238098,111.377029 
	C949.763733,117.818207 946.738037,123.026863 938.672729,123.062614 
	C930.531128,123.098701 927.475708,117.722321 924.969360,110.981491 
z"/>
<path fill="#1102E8" opacity="1.000000" stroke="none" 
	d="
M376.556152,92.415421 
	C376.486176,99.093712 377.430481,104.551704 383.512817,108.314919 
	C388.096252,111.150749 387.351166,117.137810 382.035583,119.396362 
	C377.540894,121.306122 372.486053,122.583076 367.622742,122.785599 
	C359.508942,123.123482 351.343048,122.497871 343.214752,122.014275 
	C340.955933,121.879883 338.627594,121.087044 336.547272,120.127655 
	C330.749084,117.453621 329.888153,112.393692 334.864960,108.410591 
	C338.454681,105.537621 340.161011,102.225998 340.234680,97.785118 
	C340.342194,91.306488 340.703491,84.826172 340.577728,78.353928 
	C340.548187,76.832954 339.003357,75.341431 338.155609,73.836365 
	C336.688416,74.788277 334.556824,75.398743 333.863251,76.748260 
	C329.769470,84.713417 325.979187,92.835823 322.150085,100.935249 
	C319.952393,105.584045 318.203613,110.478020 315.658295,114.921089 
	C312.550415,120.346291 309.020416,120.371140 306.235443,114.802147 
	C300.886688,104.106476 296.083252,93.138298 291.040741,82.289139 
	C289.780701,79.578125 288.650848,76.780624 287.102264,74.241783 
	C286.431366,73.141861 284.911316,72.163841 283.657440,71.989265 
	C283.065887,71.906898 281.563873,73.837540 281.544861,74.875679 
	C281.372253,84.302132 281.182373,93.745338 281.642822,103.152069 
	C281.736084,105.057541 284.575836,106.806519 286.096710,108.670609 
	C287.522919,110.418655 290.208160,112.443947 289.958069,113.952370 
	C289.573639,116.270683 287.418976,119.781944 285.547638,120.108833 
	C277.621124,121.493462 269.533325,122.158279 261.479553,122.500725 
	C258.650452,122.621017 255.433167,121.585541 252.986618,120.100227 
	C251.164658,118.994110 249.273834,116.296974 249.306763,114.340279 
	C249.337051,112.540527 251.835754,110.730438 253.355255,109.021118 
	C255.140182,107.013237 258.402893,105.285645 258.682159,103.132668 
	C261.444489,81.835434 263.062592,60.454105 261.174835,38.955765 
	C260.808502,34.783871 258.916199,31.862516 255.105240,29.966261 
	C252.072113,28.457043 249.420044,26.487364 249.666367,22.405945 
	C249.919128,18.217337 252.668335,16.178356 256.085419,14.984858 
	C266.879944,11.214601 277.991241,10.876212 289.008423,13.432691 
	C291.644562,14.044393 294.426666,16.850132 295.843933,19.375170 
	C300.558228,27.774466 304.537323,36.582855 309.094696,45.075321 
	C311.279968,49.147522 313.978546,52.974945 316.729828,56.702785 
	C318.844116,59.567532 321.380066,59.146965 323.140076,56.266491 
	C325.387573,52.588192 327.379547,48.745510 329.337158,44.900108 
	C333.182617,37.346195 336.937622,29.746120 340.712189,22.156260 
	C343.626404,16.296421 348.306580,12.665488 354.848236,12.662549 
	C362.760956,12.658995 370.886017,12.441055 378.531006,14.102344 
	C387.257812,15.998720 388.598480,23.362230 381.707123,29.182526 
	C376.650177,33.453510 376.351471,39.112606 376.271973,44.616875 
	C376.044159,60.393280 376.386993,76.177925 376.556152,92.415421 
z"/>
<path fill="#1102E8" opacity="1.000000" stroke="none" 
	d="
M654.985840,122.159431 
	C650.820007,120.833771 646.729980,120.139465 643.434875,118.137093 
	C638.404236,115.080070 638.530701,109.605644 643.479431,106.521454 
	C648.699585,103.268143 650.964172,98.648186 650.978577,92.775177 
	C651.021362,75.305191 651.079895,57.833736 650.885803,40.365589 
	C650.828735,35.229679 649.179565,30.727514 644.117676,27.856726 
	C642.200195,26.769220 639.953125,23.932261 640.116821,22.094002 
	C640.322815,19.780718 642.472412,16.264093 644.439575,15.742674 
	C650.287537,14.192715 656.441284,13.339897 662.504211,13.154649 
	C674.452820,12.789568 686.423523,13.217011 698.379944,13.013575 
	C707.937439,12.850957 717.392883,13.128505 726.315430,16.980335 
	C735.874390,21.106884 742.222839,28.040569 742.903442,38.762592 
	C743.561218,49.125420 739.933533,57.660423 730.503479,63.127201 
	C729.353210,63.794037 727.743469,65.411903 727.927124,66.237289 
	C728.219971,67.552933 729.632385,69.169922 730.932983,69.624374 
	C742.160461,73.547249 746.566772,82.327072 748.222900,93.194695 
	C748.548828,95.333702 748.417358,97.744270 749.400024,99.533485 
	C750.831238,102.139206 752.957458,104.411827 755.021973,106.605782 
	C756.677734,108.365341 760.339966,109.978264 760.191223,111.336372 
	C759.869385,114.274033 758.379517,118.147614 756.085938,119.565773 
	C752.277893,121.920418 747.461304,122.644615 743.067322,124.048546 
	C742.913757,124.097618 742.736145,124.069298 742.569885,124.080734 
	C719.829468,125.645859 711.397461,119.498993 705.961548,97.417198 
	C705.009338,93.549133 704.248291,89.607559 702.928589,85.865822 
	C702.068848,83.428200 700.872681,80.504692 698.900879,79.214577 
	C696.349487,77.545265 692.799072,76.517937 689.836731,76.810951 
	C688.701843,76.923210 687.447815,81.392075 687.231445,83.958588 
	C686.884338,88.076614 687.335815,92.264313 687.485779,96.421257 
	C687.664124,101.363533 689.369629,105.143082 693.999390,107.887024 
	C698.798401,110.731285 698.291626,116.915977 693.311584,119.587830 
	C691.025391,120.814423 688.327148,121.839729 685.783264,121.919487 
	C675.668335,122.236641 665.540588,122.145096 654.985840,122.159431 
M703.478210,47.105736 
	C702.711060,42.755455 702.563538,38.165802 701.001465,34.122612 
	C699.459412,30.130999 695.328064,29.262960 691.265381,29.950220 
	C686.998840,30.671953 687.274353,34.229626 687.101929,37.374401 
	C686.792725,43.015713 686.703125,48.675270 686.193481,54.297440 
	C685.779175,58.867470 687.771301,60.252804 692.017639,59.958485 
	C699.008118,59.473957 702.015991,56.408852 703.478210,47.105736 
z"/>
<path fill="#1102E8" opacity="1.000000" stroke="none" 
	d="
M621.293335,123.725273 
	C614.752197,123.698303 608.565125,124.016518 602.521667,123.230980 
	C594.458496,122.182922 588.754456,117.224754 585.955017,109.709915 
	C583.414734,102.890862 581.788635,95.733658 579.698181,88.743866 
	C578.155273,83.584961 576.538574,78.451385 570.520813,76.651283 
	C565.463379,75.138435 563.179199,76.627724 563.038696,81.872047 
	C562.918396,86.363930 562.991150,90.866661 563.146912,95.358749 
	C563.325989,100.520821 564.589600,104.839539 569.690918,107.853134 
	C574.926941,110.946335 574.059448,117.613533 568.234741,119.961662 
	C564.610535,121.422699 560.506287,122.387733 556.621826,122.373466 
	C546.364502,122.335800 536.093140,121.856155 525.865295,121.063255 
	C523.258606,120.861183 520.476929,119.242332 518.331726,117.563766 
	C514.422058,114.504517 514.660156,109.324295 518.896423,106.763908 
	C524.904663,103.132492 526.902466,97.749290 526.905823,91.205643 
	C526.914246,74.883904 527.000610,58.561184 526.845215,42.240868 
	C526.784119,35.832901 525.167419,30.232174 518.415894,27.143276 
	C513.874451,25.065516 514.343811,18.312712 519.427124,16.071552 
	C523.558167,14.250230 528.352234,13.225105 532.878235,13.133883 
	C549.488098,12.799109 566.130981,12.498898 582.715149,13.232594 
	C590.001587,13.554949 597.539246,15.515943 604.312378,18.309778 
	C613.221741,21.984741 618.261414,29.428627 618.598816,39.393913 
	C618.938660,49.431709 615.571045,57.632946 606.510132,62.952000 
	C605.219788,63.709496 603.515808,65.292091 603.578064,66.404633 
	C603.643616,67.575676 605.407288,69.198837 606.759644,69.664726 
	C618.267700,73.629143 622.492798,82.779114 624.072510,93.734909 
	C624.979797,100.027611 625.798340,105.848877 633.587646,107.681450 
	C637.067200,108.500084 637.806824,114.484375 634.320312,117.275803 
	C630.734009,120.147110 625.963562,121.539513 621.293335,123.725273 
M576.931274,55.273029 
	C580.296082,48.601967 580.040283,41.719410 577.398376,35.033215 
	C575.655945,30.623249 571.654663,29.222370 567.091797,29.926811 
	C562.710205,30.603260 563.153442,34.152103 562.982971,37.300224 
	C562.713562,42.276798 562.330994,47.248001 562.117310,52.226665 
	C561.784546,59.979023 564.704590,61.988316 572.075989,58.971008 
	C573.701965,58.305450 575.046143,56.951469 576.931274,55.273029 
z"/>
<path fill="#1102E8" opacity="1.000000" stroke="none" 
	d="
M205.156067,119.300285 
	C178.182739,128.094574 151.296555,120.473755 136.617065,100.214020 
	C116.153633,71.971634 124.395409,21.436628 173.512131,13.083800 
	C208.671265,7.104610 235.750565,26.590586 242.550690,61.242332 
	C246.741394,82.597145 234.356201,105.529915 212.884659,116.073059 
	C210.501205,117.243401 207.986740,118.146942 205.156067,119.300285 
M189.007919,99.987465 
	C197.524734,100.598900 203.416504,96.129318 203.836365,87.618210 
	C204.645279,71.221733 200.678024,55.908573 191.190216,42.370071 
	C186.593491,35.810825 180.038315,33.409805 174.430313,35.301586 
	C169.114853,37.094685 165.284729,43.674698 165.207794,51.166725 
	C165.199265,51.998875 165.191696,52.838741 165.286987,53.663094 
	C166.654404,65.492020 169.537582,76.905205 175.248932,87.422585 
	C178.209091,92.873718 181.743851,97.952965 189.007919,99.987465 
z"/>
<path fill="#1102E8" opacity="1.000000" stroke="none" 
	d="
M484.717957,112.761986 
	C463.671936,125.104218 442.226868,127.138374 420.687927,115.829628 
	C399.470673,104.689766 389.465210,82.725334 392.974243,57.647972 
	C395.873993,36.924934 412.684967,19.244360 434.492371,13.982151 
	C470.719177,5.240476 501.849487,24.667822 508.339020,61.176632 
	C512.223389,83.029427 503.044006,100.081886 484.717957,112.761986 
M433.676727,41.417072 
	C429.597443,48.919498 431.416931,56.603218 433.065247,64.240631 
	C435.428253,75.189537 438.799133,85.745537 446.178986,94.513992 
	C450.111542,99.186508 455.085663,101.639626 461.161865,99.560112 
	C467.248413,97.477074 470.230865,92.399475 469.833679,86.381676 
	C469.281525,78.016342 468.195984,69.577354 466.212189,61.444695 
	C464.045654,52.562809 460.498627,43.985893 452.927063,38.048527 
	C446.005676,32.620964 439.414398,33.689754 433.676727,41.417072 
z"/>
<path fill="#1102E8" opacity="1.000000" stroke="none" 
	d="
M882.272949,68.054001 
	C882.191772,95.624710 862.057251,117.950279 833.914062,122.052841 
	C811.218384,125.361305 791.370972,119.948555 776.850464,101.383560 
	C754.704712,73.069328 763.491333,21.522039 812.703125,13.075464 
	C847.325867,7.132914 874.559570,26.211187 881.581543,60.144714 
	C882.082336,62.564945 882.054749,65.094528 882.272949,68.054001 
M836.611328,52.967140 
	C833.525757,48.301140 831.154602,42.886482 827.209106,39.121590 
	C818.409546,30.724821 806.842163,34.778137 805.223633,46.794582 
	C804.469421,52.393761 805.177856,58.392658 806.291687,63.998093 
	C808.533081,75.278214 812.084656,86.180443 819.908936,95.065765 
	C823.550354,99.201042 828.131409,101.271545 833.714172,99.808456 
	C838.948608,98.436638 841.669922,94.539215 842.785278,89.558281 
	C843.355286,87.012672 843.786133,84.188293 843.279236,81.693230 
	C841.373169,72.310951 839.055603,63.012295 836.611328,52.967140 
z"/>
<path fill="#1102E8" opacity="1.000000" stroke="none" 
	d="
M109.404205,52.787399 
	C103.640427,51.966705 100.712502,48.224781 98.200340,43.942371 
	C96.855446,41.649769 95.731583,39.119743 93.942123,37.233753 
	C92.757187,35.984894 90.396484,34.875015 88.877975,35.196182 
	C87.384232,35.512119 85.805000,37.515255 85.144447,39.136963 
	C84.361710,41.058632 84.315521,43.363262 84.305954,45.503498 
	C84.241920,59.831097 84.313148,74.159279 84.256607,88.486938 
	C84.225655,96.330193 85.743851,102.783882 94.605606,105.591148 
	C99.572823,107.164673 100.143585,114.216003 95.571815,117.358223 
	C92.283722,119.618156 88.122871,121.203545 84.160851,121.779533 
	C70.588364,123.752678 56.937435,123.815460 43.437313,121.021523 
	C40.256245,120.363190 36.978878,119.137741 34.289906,117.353294 
	C29.016289,113.853630 29.661245,107.196671 35.633804,105.548973 
	C42.861252,103.555069 44.800285,98.819061 45.027824,92.239410 
	C45.573826,76.451012 46.470913,60.670956 46.726883,44.879433 
	C46.779743,41.618469 45.571514,36.561275 43.352619,35.415894 
	C38.985939,33.161842 37.264351,38.446182 34.853298,41.157623 
	C32.103905,44.249554 29.693777,47.708092 26.627413,50.435219 
	C23.473032,53.240620 19.451895,54.129681 15.485634,51.915756 
	C11.429263,49.651546 9.848181,45.659115 10.145487,41.343803 
	C10.756474,32.475498 14.097846,24.567129 19.992828,17.851044 
	C23.829449,13.480026 28.120506,11.960154 34.477009,12.549125 
	C56.668617,14.605319 78.943367,15.236309 101.184517,12.284198 
	C103.867195,11.928121 107.377792,12.755091 109.533127,14.348169 
	C119.299004,21.566446 123.287468,31.635897 122.008675,43.617767 
	C121.380623,49.502556 117.466644,52.175499 109.404205,52.787399 
z"/>
<path fill="#1204E8" opacity="1.000000" stroke="none" 
	d="
M1045.055298,102.394638 
	C1047.686157,92.230865 1053.008667,86.884209 1061.877808,86.169312 
	C1069.202637,85.578880 1075.178345,88.605148 1079.070801,94.998146 
	C1083.020142,101.484756 1082.399170,110.280350 1077.812378,116.055511 
	C1073.250854,121.799202 1065.746338,124.241905 1058.644409,122.294868 
	C1051.059692,120.215469 1045.889404,114.165962 1045.035400,106.298576 
	C1044.910645,105.149834 1045.011597,103.976616 1045.055298,102.394638 
z"/>
<path fill="#F9F9FE" opacity="1.000000" stroke="none" 
	d="
M703.432068,47.514935 
	C702.015991,56.408852 699.008118,59.473957 692.017639,59.958485 
	C687.771301,60.252804 685.779175,58.867470 686.193481,54.297440 
	C686.703125,48.675270 686.792725,43.015713 687.101929,37.374401 
	C687.274353,34.229626 686.998840,30.671953 691.265381,29.950220 
	C695.328064,29.262960 699.459412,30.130999 701.001465,34.122612 
	C702.563538,38.165802 702.711060,42.755455 703.432068,47.514935 
z"/>
<path fill="#FAF9FE" opacity="1.000000" stroke="none" 
	d="
M576.725708,55.593765 
	C575.046143,56.951469 573.701965,58.305450 572.075989,58.971008 
	C564.704590,61.988316 561.784546,59.979023 562.117310,52.226665 
	C562.330994,47.248001 562.713562,42.276798 562.982971,37.300224 
	C563.153442,34.152103 562.710205,30.603260 567.091797,29.926811 
	C571.654663,29.222370 575.655945,30.623249 577.398376,35.033215 
	C580.040283,41.719410 580.296082,48.601967 576.725708,55.593765 
z"/>
<path fill="#FCFCFF" opacity="1.000000" stroke="none" 
	d="
M188.594635,99.947266 
	C181.743851,97.952965 178.209091,92.873718 175.248932,87.422585 
	C169.537582,76.905205 166.654404,65.492020 165.286987,53.663094 
	C165.191696,52.838741 165.199265,51.998875 165.207794,51.166725 
	C165.284729,43.674698 169.114853,37.094685 174.430313,35.301586 
	C180.038315,33.409805 186.593491,35.810825 191.190216,42.370071 
	C200.678024,55.908573 204.645279,71.221733 203.836365,87.618210 
	C203.416504,96.129318 197.524734,100.598900 188.594635,99.947266 
z"/>
<path fill="#FCFCFF" opacity="1.000000" stroke="none" 
	d="
M433.868652,41.087959 
	C439.414398,33.689754 446.005676,32.620964 452.927063,38.048527 
	C460.498627,43.985893 464.045654,52.562809 466.212189,61.444695 
	C468.195984,69.577354 469.281525,78.016342 469.833679,86.381676 
	C470.230865,92.399475 467.248413,97.477074 461.161865,99.560112 
	C455.085663,101.639626 450.111542,99.186508 446.178986,94.513992 
	C438.799133,85.745537 435.428253,75.189537 433.065247,64.240631 
	C431.416931,56.603218 429.597443,48.919498 433.868652,41.087959 
z"/>
<path fill="#FCFCFF" opacity="1.000000" stroke="none" 
	d="
M836.751709,53.324726 
	C839.055603,63.012295 841.373169,72.310951 843.279236,81.693230 
	C843.786133,84.188293 843.355286,87.012672 842.785278,89.558281 
	C841.669922,94.539215 838.948608,98.436638 833.714172,99.808456 
	C828.131409,101.271545 823.550354,99.201042 819.908936,95.065765 
	C812.084656,86.180443 808.533081,75.278214 806.291687,63.998093 
	C805.177856,58.392658 804.469421,52.393761 805.223633,46.794582 
	C806.842163,34.778137 818.409546,30.724821 827.209106,39.121590 
	C831.154602,42.886482 833.525757,48.301140 836.751709,53.324726 
z"/>
</svg>