<?xml version="1.0" standalone="no"?>
<!DOCTYPE svg PUBLIC "-//W3C//DTD SVG 20010904//EN"
 "http://www.w3.org/TR/2001/REC-SVG-20010904/DTD/svg10.dtd">
<svg version="1.0" xmlns="http://www.w3.org/2000/svg"
 width="835.000000pt" height="104.000000pt" viewBox="0 0 835.000000 104.000000"
 preserveAspectRatio="xMidYMid meet">

<g transform="translate(0.000000,104.000000) scale(0.100000,-0.100000)"
fill="#000000" stroke="none">
<path d="M157 920 c-77 -67 -117 -210 -73 -259 24 -26 82 -28 111 -3 12 9 38
39 59 65 46 58 76 61 87 8 9 -45 -7 -420 -20 -453 -6 -17 -22 -30 -45 -38 -63
-20 -72 -76 -18 -104 65 -34 260 -47 373 -26 69 13 103 38 107 79 3 27 -1 33
-30 45 -73 31 -73 32 -73 282 0 193 2 225 16 240 24 23 52 11 76 -34 43 -75
96 -102 156 -79 32 12 49 72 37 130 -23 112 -93 186 -160 171 -46 -11 -473
-11 -526 -1 -38 8 -45 6 -77 -23z"/>
<path d="M1283 935 c-83 -23 -141 -54 -199 -107 -168 -154 -175 -432 -15 -601
258 -273 753 -111 778 253 13 190 -108 379 -283 442 -76 27 -210 33 -281 13z
m139 -187 c37 -25 93 -142 113 -234 32 -141 8 -233 -63 -247 -89 -17 -171 100
-209 297 -17 89 -12 132 19 171 37 48 84 52 140 13z"/>
<path d="M3330 934 c-238 -63 -368 -270 -319 -506 51 -241 296 -386 544 -323
143 37 243 113 300 228 79 160 45 343 -88 485 -107 113 -278 158 -437 116z
m100 -164 c20 0 83 -66 106 -112 29 -57 64 -196 64 -256 0 -98 -62 -159 -132
-128 -18 7 -43 24 -55 37 -52 57 -112 234 -113 332 0 54 27 107 64 123 17 7
37 11 44 9 8 -3 18 -5 22 -5z"/>
<path d="M6200 934 c-238 -63 -368 -270 -319 -506 51 -241 296 -386 544 -323
143 37 243 113 300 228 79 160 45 343 -88 485 -107 113 -278 158 -437 116z
m100 -164 c20 0 83 -66 106 -112 29 -57 64 -196 64 -256 0 -98 -62 -159 -132
-128 -18 7 -43 24 -55 37 -52 57 -112 234 -113 332 0 54 27 107 64 123 17 7
37 11 44 9 8 -3 18 -5 22 -5z"/>
<path d="M1988 926 c-60 -16 -78 -32 -78 -67 0 -22 9 -35 39 -55 21 -14 42
-35 45 -47 17 -64 -2 -487 -24 -528 -6 -10 -22 -22 -35 -25 -28 -7 -40 -35
-26 -62 25 -46 224 -56 280 -14 38 28 39 57 3 76 -16 8 -33 23 -37 33 -12 31
-17 166 -8 208 18 79 36 55 147 -188 76 -168 93 -166 176 27 61 139 89 186
112 186 24 0 32 -53 23 -147 -6 -67 -11 -80 -36 -104 -40 -37 -39 -73 4 -96
49 -26 255 -29 321 -6 66 24 77 53 36 95 -52 51 -53 57 -54 303 -1 245 0 250
50 300 32 32 29 71 -8 98 -33 25 -161 35 -224 18 -56 -15 -77 -41 -153 -192
-36 -73 -74 -137 -83 -143 -28 -17 -60 24 -138 176 -62 121 -77 142 -106 154
-41 17 -162 17 -226 0z"/>
<path d="M4006 929 c-40 -11 -56 -28 -56 -60 0 -21 7 -32 30 -44 16 -8 35 -25
42 -38 14 -27 24 -343 13 -444 -6 -62 -10 -71 -46 -104 -90 -83 -14 -139 189
-139 190 1 263 52 177 125 -35 29 -36 33 -42 115 -5 73 -3 88 12 103 32 33 98
-9 115 -72 45 -167 53 -186 89 -222 41 -41 91 -59 167 -59 148 0 240 86 142
132 -26 13 -39 26 -44 45 -36 163 -51 191 -125 228 -27 14 -49 30 -49 35 0 5
18 22 40 36 49 32 80 94 80 157 0 88 -42 146 -135 189 -48 21 -62 22 -311 23
-143 1 -273 -2 -288 -6z m389 -125 c26 -10 45 -59 45 -114 0 -44 -4 -56 -30
-81 -23 -24 -37 -30 -62 -27 l-33 3 -3 92 c-2 53 2 102 8 113 11 20 43 26 75
14z"/>
<path d="M4961 927 c-64 -16 -74 -76 -18 -106 43 -23 47 -48 47 -292 0 -249
-4 -269 -55 -303 -21 -14 -26 -24 -23 -49 5 -48 56 -69 182 -75 124 -5 214 10
239 39 25 31 21 46 -20 84 -38 34 -38 35 -41 123 -4 101 6 121 55 105 39 -13
67 -59 87 -145 25 -102 58 -160 109 -189 36 -20 55 -24 132 -24 99 0 135 12
168 56 23 32 12 63 -27 73 -31 8 -40 24 -56 101 -19 94 -43 131 -105 166 -30
17 -55 34 -55 38 0 4 18 23 41 41 72 57 97 148 64 228 -26 62 -69 98 -149 125
-37 12 -530 16 -575 4z m410 -143 c20 -22 24 -36 24 -91 0 -59 -3 -67 -28 -89
-30 -26 -92 -33 -100 -11 -7 22 5 192 16 205 16 21 62 14 88 -14z"/>
<path d="M6887 926 c-91 -25 -113 -75 -53 -121 30 -23 47 -58 141 -298 144
-364 144 -365 173 -387 33 -27 84 -26 117 2 17 15 49 81 93 188 54 131 72 165
87 165 15 0 34 -36 92 -170 42 -99 82 -178 95 -189 17 -13 33 -17 61 -13 69 9
68 8 207 367 117 303 112 293 156 343 40 44 42 57 10 94 -24 27 -27 28 -123
28 -116 0 -153 -16 -153 -64 0 -23 8 -34 36 -50 35 -21 36 -24 30 -61 -9 -54
-43 -144 -66 -172 -19 -23 -19 -23 -38 -3 -24 24 -92 175 -92 202 0 11 11 30
25 43 75 71 -27 117 -237 107 -126 -5 -181 -26 -186 -68 -2 -20 5 -34 32 -55
19 -16 42 -46 52 -66 15 -32 15 -42 4 -81 -16 -58 -46 -107 -65 -107 -31 0
-102 190 -90 243 3 18 7 48 8 67 2 29 -3 37 -28 49 -41 20 -226 25 -288 7z"/>
<path d="M8110 363 c-31 -11 -71 -58 -80 -95 -32 -118 86 -214 197 -161 96 45
98 199 4 248 -29 15 -91 19 -121 8z"/>
</g>
</svg>
